<svg xmlns="http://www.w3.org/2000/svg" viewBox="0 0 313.94 313.94"><defs><linearGradient id="a" x1="8.83" x2="318.52" y1="341.35" y2="263.39" gradientUnits="userSpaceOnUse"><stop offset=".25" stop-color="#0087cc"/><stop offset=".8" stop-color="#662483"/></linearGradient><linearGradient id="b" x1="-11.31" x2="223.88" y1="42.97" y2="-34.56" gradientUnits="userSpaceOnUse"><stop offset=".2" stop-color="#e6007e"/><stop offset=".54" stop-color="#a61180"/><stop offset=".9" stop-color="#662483"/></linearGradient><linearGradient id="c" x1="1.48" x2="313.77" y1="91.56" y2="91.56" gradientUnits="userSpaceOnUse"><stop offset=".1" stop-color="#ed6ea7"/><stop offset=".21" stop-color="#eb5ba0"/><stop offset=".61" stop-color="#e71987"/><stop offset=".8" stop-color="#e6007e"/></linearGradient><linearGradient id="d" x1="-25.33" x2="183.44" y1="270.06" y2="140.55" gradientUnits="userSpaceOnUse"><stop offset="0" stop-color="#662483"/><stop offset=".5" stop-color="#e6007e"/><stop offset=".58" stop-color="#e60580"/><stop offset=".69" stop-color="#e71686"/><stop offset=".81" stop-color="#e93290"/><stop offset=".94" stop-color="#eb589f"/><stop offset="1" stop-color="#ed6ea7"/></linearGradient><linearGradient id="e" x1="121.66" x2="145.65" y1="201.14" y2="117.78" gradientUnits="userSpaceOnUse"><stop offset=".15" stop-color="#878787"/><stop offset=".27" stop-color="#878787" stop-opacity=".92"/><stop offset=".48" stop-color="#878787" stop-opacity=".71"/><stop offset=".75" stop-color="#878787" stop-opacity=".36"/><stop offset="1" stop-color="#878787" stop-opacity="0"/></linearGradient></defs><path d="M0 313.94h235.45l78.49-78.49-11.457-3.373L2.14 304.167Z" style="fill:url(#a)"/><path d="M0 0v78.48l10.634 2.152L238.366 7.055 235.45 0Z" style="fill:url(#b)"/><path d="M209.29 183.13 313.94 78.48 235.45 0 0 78.48l1.449 8.923 203.67 102.355Z" style="fill:url(#c)"/><path d="M0 78.48v235.46l313.94-78.49L4.636 80.798Z" style="fill:url(#d)"/><path d="M235.45 0 0 78.48l6.945 3.473L209.29 183.13 313.94 78.48Z" style="mix-blend-mode:multiply;fill:url(#e)"/></svg>