<svg xmlns="http://www.w3.org/2000/svg" width="758" height="540" overflow="hidden"><defs><clipPath id="a"><path d="M-1 108h758v540H-1z"/></clipPath></defs><g fill-rule="evenodd" clip-path="url(#a)" transform="translate(1 -108)"><path fill="#66B821" d="M349.572 331.754c-49.56-46.65-121.702 19.282-80.198 80.869 21.212 31.488 75.816 51.966 154.177 47.853 11.194-.582 14.837-3.034 3.713-8.085-68.576-31.077-41.146-86.231-77.692-120.637Z"/><path fill="#FF7F00" d="M189.345 475.472c5.105-9.706 6.467-12.126-6.671-6.009-74.339 34.543-88.917-21.186-138.318-13.776-27.39 4.117-48.444 30.487-43.68 59.418 5.673 34.557 45.758 47.68 77.615 44.411 65.63-6.701 102.616-67.995 111.054-84.044Z"/><path fill="#3786BC" d="M132.197 451.649c2.619 2.217 6.021 6.511-3.495 5.057C10.343 438.805-11.145 368.502 19.619 333.961c16.32-18.321 51.252-20.693 67.951-2.217 31.616 35.015-2.449 79.989 44.627 119.905Z"/><path fill="#FF7F00" d="M561.659 170.299c11.651.427 14.622 2.75 2.838 7.434-28.088 11.148-56.418 31.89-57.528 78.835-1.611 67.695-100.201 49.75-89.097-21.013 12.558-80.071 130.29-65.761 143.787-65.256Z"/><path fill="#B047A0" d="M214.064 515.605c20.297 60.568 105.58 39.461 98.522-18.761-6.086-50.106-66.099-34.058-66.099-89.2 0-6.718-.564-12.239-7.317-1.955-18.808 28.677-35.164 79.901-25.106 109.916Z"/><path fill="#66B821" d="M579.91 482.849c-52.082 36.808-71.148-7.698-108.651-9.788-43.194-2.416-55.705 67.672-.163 80.552 25.761 6.098 89.281-6.316 115.424-69.49 1.384-3.332-.047-7.123-6.61-1.274Z"/><path fill="#FF7F00" d="M564.207 436.359c11.705-58.978-37.546-114.112-42.237-119.924-1.215-1.55-11.253-13.578-6.912 4.092 13.014 52.77-14.432 67.727-22.739 105.338-12.009 54.134 61.679 61.938 71.888 10.494Z"/><path fill="#FF4100" d="M263.044 316.127c-62.464 6.305-98.871 23.734-118.536 38.968-28.972 22.441-25.527 58.209-8.2 75.583 18.169 18.246 53.048 23.89 75.644-3.884 27.249-33.534.584-74.385 53.991-105.304 7.826-4.53 2.923-5.955-2.899-5.363Z"/><path fill="#66B821" d="M667.163 323.407c-11.813 5.106-21.014 14.518-27.62 25.419-6.957 11.495-9.701 24.964-16.753 36.381-6.121 9.867-13.938 19.334-23.132 26.233-5.081 3.798-7.927 9.194 1.814 7.173 7.817-1.636 18.879-3.171 32.31-1.809 13.438 1.316 31.254 7.847 39.338 9.789 16.651 5.544 36.101 5.278 48.688-8.027 20.536-21.691 17.91-61.886-2.236-83.115-13.149-13.829-34.546-19.742-52.409-12.044Z"/><path fill="#3786BC" d="M715.548 446.514c-41.869-6.567-62.411 25.372-123.991-17.167-5.466-3.775-10.054-6.911-6.026 5.561 6.617 20.326 35.991 101.966 92.906 116.45 83.343 21.239 105.417-92.185 37.111-104.844ZM319.475 145.416c-9.035 46.28 26.74 68.169 17.954 136.228-.7 5.433 4.191 5.294 5.513 2.262 27.167-62.393 67.732-59.976 83.096-108.136 22.954-71.97-94.674-91.371-106.563-30.354Z"/><path fill="#B047A0" d="M141.234 323.679c55.473 4.311 58.34-36.318 156.876-30.803 8.022.45 7.045-4.777 1.874-6.33-88.319-26.485-103.386-82.764-149.291-84.496-75.033-2.835-85.664 115.695-9.459 121.629Z"/><path fill="#FF4100" d="M208.606 208.932c33.881 43.573 60.197 14.802 99.028 56.755 5.674 6.131 9.955 3.147 5.542-4.004-27.071-43.901 3.37-83.595-19.365-112.623-42.863-54.7-125.049 8.608-85.205 59.872ZM525 254.336c0 46.073 50.914 67.412 54.169 153.313.196 5.679 5.458 5.842 6.559.233 16.833-85.567 63.984-102.129 68.059-151.301C660.072 180.592 525 166.827 525 254.336Z"/><path fill="#B047A0" d="M480.169 405.412c20.587-17.709 27.687-49.243 8.987-72.1-34.295-39.086-71.133-.179-106.168-65.417-5.758-10.716-9.51-8.397-7.388 3.194 7.185 39.846-5.976 79.428 17.444 114.776 23.216 35.039 64.673 38.923 87.125 19.547Z"/><path fill="#8C8C70" d="M374.504 480C349.38 480 329 500.266 329 525.285V647h91V525.285c.008-25.019-20.364-45.285-45.496-45.285Z"/></g></svg>