<svg xmlns="http://www.w3.org/2000/svg" width="94.693001pt" height="180.67799pt" viewBox="0 0 94.692998 180.678"><path fill="#724698" d="m94.692 27.336-13.856-8L61.204 30.67V8L47.346 0 33.49 8v22.67L13.857 19.336 0 27.336v16l19.633 11.335L0 66.006v16l13.857 8.001 33.49-19.336 33.49 19.336 13.856-8.001v-16L75.06 54.671l19.633-11.335Z"/><path fill="#00aebb" d="M66.682 141.648 47.346 152.84 28.01 141.648l19.336-11.192Zm-38.97-26.642V98.672l-13.856-8-13.856 8v54.602l47.346 27.404 47.347-27.404-.001-54.602-13.857-8-13.856 8v16.334l-19.633-11.364Z"/></svg>