<svg xmlns="http://www.w3.org/2000/svg" width="746" height="580" overflow="hidden"><defs><clipPath id="a"><path d="M5 82h746v580H5z"/></clipPath></defs><g fill="#008837" fill-rule="evenodd" clip-path="url(#a)" transform="translate(-5 -82)"><path d="m6 534 237.608-374L277 217.422 86.756 514.6c.006-.006-68.33 13.182-80.756 19.4ZM367.657 112 114 510s43.565-3.891 51.354-3.105L391 156.308 367.657 112ZM463.734 82 197 506.14s210.749-9.339 318.834 9.339c0 0 220.081 31.125 161.762 98.833 0 0-24.883 27.236-111.99 46.688 0 0 158.65-7.778 181.2-83.251 0 0 9.326-23.348-3.893-43.586L463.734 82ZM76.553 575.438H95.7c8.51 0 21.949 2.401 21.949 32.219 0 16.598-5.453 33.899-21.687 33.899h-19.41v-66.118ZM57 659h41.37c31.52 0 39.63-31.228 39.63-52.891C138 586.972 131.356 558 99.163 558H57v101ZM184.873 580.78h.26l11.743 39.944h-24.142l12.139-39.944Zm-17.419 57.396h34.975l6.06 20.824H230l-33.39-101h-22.83L140 659h20.855l6.599-20.824ZM313.719 575.853h-51.027v21.238h46.88v17.878h-46.88v26.159H316V659h-73V558h70.719v17.853Z"/><path d="M377.09 604.617H417v53.753h-13.299l-1.985-12.509C396.643 651.976 389.335 661 371.904 661 348.888 661 328 643.776 328 608.776c0-27.226 14.504-52.918 46.694-52.775 29.275 0 40.846 19.855 41.913 33.613h-19.958c0-3.893-6.778-16.389-20.882-16.389-14.235 0-27.409 10.274-27.409 35.835 0 27.221 14.235 34.307 27.796 34.307 4.4 0 19.028-1.807 23.16-21.94H377.09v-16.81ZM511.994 623.27c0 26.407-15.164 37.73-39.224 37.73-8.783 0-21.82-2.236-30.322-12.157-5.184-6.153-7.186-14.256-7.448-24.321V558h20.342v65.121c0 13.976 7.716 20.129 17.029 20.129 13.692 0 19.287-6.994 19.287-19.151V558H512v65.27Z"/></g></svg>