<svg xmlns="http://www.w3.org/2000/svg" width="758" height="728" overflow="hidden"><defs><clipPath id="a"><path d="M-1 14h758v728H-1z"/></clipPath></defs><g fill="#00AE4D" fill-rule="evenodd" clip-path="url(#a)" transform="translate(1 -14)"><path d="M359 376 326.623 19c-58.722 20.39-100.852 76.173-100.852 141.804 0 15.879 2.587 31.126 7.148 45.484-24.583-17.559-54.663-27.957-87.186-27.957-50.716 0-95.563 25.177-122.733 63.676L359 376ZM350.002 409.93 0 328c.827 62.249 40.62 119.914 103.085 140.648 15.112 5.007 30.436 7.355 45.548 7.549-24.501 17.819-43.863 43.136-54.16 74.043-16.021 48.222-6.242 98.792 21.826 136.762L350.002 409.93ZM378.324 426 194 734.385c59.494 18.159 126.449-2.156 165.163-55.334 9.354-12.874 16.264-26.734 21.039-41.068 9.517 28.746 27.723 54.93 54.023 74.127 40.995 29.961 92.106 36.056 136.775 20.897L378.324 426ZM395 376l330.002-140.569c-37.457-49.612-103.535-72.566-166.037-52.394-15.129 4.884-28.849 12.034-41.113 20.785 9.158-28.792 9.789-60.611-.194-91.572-15.597-48.253-53.344-83.226-98.372-97.25L395 376ZM405 406.873 641.101 677c35.581-50.98 36.925-120.956-1.651-174.104-9.325-12.846-20.397-23.687-32.539-32.633 30.24-.211 60.706-9.482 87.075-28.589 41.086-29.802 62.633-76.512 62-123.674L405 406.873Z"/></g></svg>