<svg xmlns="http://www.w3.org/2000/svg" width="350.57602pt" height="225.00002pt" viewBox="0 0 350.576 225.00001"><path fill="#68686d" d="M286.36 159.119c0 .654.531 1.192 1.192 1.192h58.507c.654 0 1.185-.538 1.185-1.192V11.182a1.19 1.19 0 0 0-1.185-1.192h-27.592c-.655 0-1.186.538-1.186 1.192V133.78a.845.845 0 0 1-.842.843h-28.887c-.66 0-1.192.53-1.192 1.185zm-91.332 53.99H349.39c.713 0 1.186-.473 1.186-1.192V187.66c0-.712-.473-1.192-1.186-1.192H221.78Zm50.423-144.607c-11.652 0-21.407-9.036-21.407-21.407 0-12.365 9.755-21.407 21.407-21.407s21.407 9.042 21.407 21.407c0 12.371-9.755 21.407-21.407 21.407m0-68.502c-27.592 0-50.424 19.982-50.424 47.095s22.832 47.095 50.424 47.095 50.424-19.982 50.424-47.095S273.043 0 245.451 0" style="fill:#63666f;fill-opacity:1;stroke-width:6.47708"/><path fill="#ee2241" d="M187.894 129.59c0 .655.531 1.193 1.192 1.193h46.609c.751 0 1.127.913.59 1.444l-39.57 38.798a5.594 5.594 0 0 0-1.683 4.01v38.071l106.982-106.522c1.243-1.237.361-3.355-1.387-3.355H189.086c-.661 0-1.192.531-1.192 1.185z" style="fill:#d50037;fill-opacity:1;stroke-width:6.47708"/><path fill="#68686d" d="M88 197.887c-21.406 0-37.1-15.7-37.1-35.436 0-19.742 15.694-35.443 37.1-35.443 21.407 0 37.101 15.7 37.101 35.443 0 19.735-15.694 35.436-37.1 35.436m0-97.992c-37.58 0-66.598 28.065-66.598 62.556C21.403 196.935 50.42 225 88 225s66.598-28.065 66.598-62.55c0-34.49-29.018-62.555-66.598-62.555" style="fill:#63666f;fill-opacity:1;stroke-width:6.47708"/><path fill="#ee2241" d="M2.96 141.422 112.229 14.963c1.036-1.204.181-3.07-1.406-3.07H3.569c-.66 0-1.192.538-1.192 1.192V38.26c0 .661.531 1.192 1.192 1.192h47.645c.862 0 1.328 1.017.765 1.671L1.367 99.742A5.63 5.63 0 0 0 0 103.414v36.907c0 1.56 1.937 2.28 2.96 1.1" style="fill:#d50037;fill-opacity:1;stroke-width:6.47708"/><path fill="#68686d" d="M125.817 104.177h27.592c.654 0 1.185-.53 1.185-1.191v-62.66a.84.84 0 0 1 .843-.842h19.372c.661 0 1.192-.53 1.192-1.191v-25.21c0-.654-.53-1.185-1.192-1.185h-48.992c-.654 0-1.192.531-1.192 1.186v89.902c0 .66.538 1.191 1.192 1.191" style="fill:#63666f;fill-opacity:1;stroke-width:6.47708"/></svg>