<svg xmlns="http://www.w3.org/2000/svg" width="758" height="754" overflow="hidden"><defs><clipPath id="a"><path d="M-1 1h758v754H-1z"/></clipPath></defs><g fill="#EF4123" fill-rule="evenodd" clip-path="url(#a)" transform="translate(1 -1)"><path d="M387.436 400.613c176.359-34.324 274.966 63.562 326.331 150.074C740.72 498.951 756 440.206 756 377.917a374.39 374.39 0 0 0-7.2-73.172C357.919 237.601 234.597 533.2 196 707.891 249.924 737.288 311.809 754 377.626 754c104.975 0 199.984-42.513 268.5-111.146-77.043-237.217-258.69-242.241-258.69-242.241Z"/><path d="M365.987 131.007c-34.909 0-63.243 27.93-63.243 62.353 0 34.445 28.334 62.367 63.243 62.367 34.914 0 63.242-27.922 63.242-62.367 0-34.419-28.328-62.353-63.242-62.353ZM378.101 1c62.647 0 121.741 15.202 173.748 42.073-12.915 67.023-39.248 157.249-92.268 220.966 0 0 95.345-55.278 163.407-173.342 49.023 41.571 87.317 95.414 110.012 156.776-97.477.182-523.697 21.978-632.911 385.527C37.982 565.884 0 476.224 0 377.716c0-40.785 6.534-80.017 18.567-116.754 205.466 53.864 421.476 16.068 421.476 16.068-201.263 20.301-324.928-56.976-379.755-103.495C127.625 69.72 244.803 1 378.101 1Z"/></g></svg>