<svg xmlns="http://www.w3.org/2000/svg" width="758" height="760" overflow="hidden"><defs><clipPath id="a"><path d="M-1-1h758v760H-1z"/></clipPath></defs><g fill-rule="evenodd" clip-path="url(#a)" transform="translate(1 1)"><path fill="#F15A38" d="M386.199.073C253.015-2.523 134.592 63.856 65 166.296a98.514 98.514 0 0 1 3.423 4.172c.751.872 1.419 1.743 2.031 2.451.403.033.714.121 1.011.201 4.96.896 12.377 2.228 18.763 8 3.994 3.624 6.57 7.657 8.66 10.878.885 1.387 2.106 3.293 2.664 3.846 1.082 1.064 2.752 2.316 4.531 3.674 2.853 2.178 6.13 4.624 9.284 7.857 2.656 2.694 5.081 5.416 7.402 8.072a106.662 106.662 0 0 0 4.736 5.366c1.208 1.328 2.891 2.807 4.632 4.386 2.627 2.337 5.56 4.997 8.412 8.231 3.646 4.05 5.727 8.339 7.376 11.77.68 1.278 1.653 3.205 2.039 3.778v-.033c2.564 3.011 5.014 6.136 7.38 9.119l3.697 4.641c.658.8 2.223 2.161 3.675 3.351 2.802 2.404 6.31 5.353 9.381 9.429 2.358 3.054 4.263 6.015 6.088 8.935 1.41 2.094 2.672 4.058 3.931 5.818 2.954 4.042 4.787 8.185 6.289 11.552.793 1.822 1.598 3.753 2.278 4.654.655.913 2.031 2.358 3.491 3.854 2.45 2.484 5.446 5.592 8.131 9.563 2.794 4.155 4.426 8.398 5.748 11.787a63.542 63.542 0 0 0 1.519 3.715c.482.356 1.137.775 1.67 1.144 3.448 2.316 8.722 5.86 12.422 11.892 2.064 3.384 3.458 6.765 4.591 9.642l7.253 4.922c11.824 7.938 16.795 3.807 11.056-9.207l-66.718-151.821c-5.706-13.036-3.369-14.41 5.228-3.054l99.48 131.368c8.605 11.368 14.626 9.06 13.418-5.123l-13.988-164.803c-1.192-14.171 1.519-14.702 6.004-1.231l48.119 155.575c4.552 13.517 10.514 13.152 13.291-.8l26.919-160.439c2.79-14.011 5.563-13.772 6.188.445l6.86 164.065c.608 14.225 6.877 15.754 14.03 3.452l82.115-141.953c7.112-12.324 9.663-11.26 5.589 2.417l-46.512 156.718c-4.049 13.613 1.452 17.132 12.209 7.816L583.99 239.625c10.736-9.337 12.826-7.456 4.539 4.13l-70.888 99.274c3.596-.105 7.23-.239 10.04-1.793 5.769-3.091 9.13-10.987 15.062-13.877 5.958-2.845 13.72-1.848 19.783-4.495 5.991-2.664 10.186-9.768 16.249-12.206 6.088-2.434 12.457-4.193 18.519-6.405 6.688-2.458 12.88-6.266 19.455-8.478 6.637-2.19 13.661-3.179 20.176-5.173 6.483-2.006 14.383.805 20.748-1.005 6.93-1.936 12.25-9.333 18.946-11.046 6.759-1.751 14.047-.691 20.429-2.199 6.947-1.655 14.063-1.416 20.541-2.798 7.023-1.516 13.241-5.186 19.61-6.413 1.246-.247 2.526-.344 3.801-.398C694.06 115.013 553.979 3.337 386.199.073Z"/><path fill="#00AC6D" d="M328.761 733.452c.013-.376.147-.758.239-1.092a15.274 15.274 0 0 0-.889-1.562c-1.786-3.208-4.301-7.567-5.501-13.162-.444-2.131-1.152-4.551-1.949-7.126-.893-2.839-1.87-6.072-2.667-9.481-.989-4.43-1.111-8.596-1.291-11.926-.063-2.064-.147-4.179-.402-5.209-.847-3.576-1.35-6.905-1.799-9.924-.356-2.504-.692-4.928-1.174-6.842-.411-1.671-1.258-3.731-2.138-5.95-1.153-2.902-2.537-6.223-3.484-10.025l-.994-3.639-3.3-12.474c-.561-1.998-1.408-4.263-2.301-6.629-1.031-2.718-2.18-5.745-3.103-8.999-1.698-5.762-1.496-11.159-1.333-15.012.05-1.172.088-2.546.059-3.241-.705-2.253-1.606-4.631-2.587-7.161-1.027-2.646-2.088-5.363-3.023-8.328-.264-.541-1.254-1.851-1.958-2.877-2.201-3.011-5.194-7.119-7.027-12.516-.503-1.524-1.488-3.559-2.591-5.67-1.421-2.814-3.09-6.022-4.364-9.711-1.019-2.889-2.134-5.778-3.321-8.789l-2.595-6.801c-2.42-6.461-1.975-12.662-1.694-16.732.063-.532.097-1.177.13-1.747a59.404 59.404 0 0 0-2.49-4.698c-1.514-2.822-3.317-5.984-4.818-9.631-.373-.984-1.614-2.722-2.708-4.413-1.87-2.789-4.214-6.248-5.991-10.473-1.485-3.526-2.537-6.885-3.464-9.841-.712-2.353-1.383-4.581-2.071-6.134-1.228-2.776-2.272-5.486-3.303-8.086-1.069-2.647-2.08-5.142-3.116-7.353l-3.132-6.906c-1.379-3.115-2.72-6.088-4.104-8.91-.487-1.055-1.815-2.76-3.098-4.422-2.051-2.617-4.541-5.867-6.6-9.925-2.259-4.421-3.341-8.734-4.238-12.143-.29-1.109-.629-2.487-.893-3.383-.524-.461-1.191-.993-1.74-1.483-3.178-2.525-7.522-6.021-10.608-11.611-3.06-5.415-3.94-10.875-4.616-14.786-.167-1.06-.385-2.395-.57-3.028-2.017-3.547-3.371-7.043-4.482-9.89-.562-1.483-1.123-2.982-1.656-4.083a68.256 68.256 0 0 0-1.727-1.21c-3.555-2.354-8.377-5.574-11.941-11.248-2.62-4.02-4.167-8.044-5.429-11.327-.654-1.633-1.43-3.685-1.933-4.376-.73-1.122-2.193-2.6-3.752-4.208-2.357-2.387-4.973-5.134-7.413-8.605-2.738-3.957-4.486-7.919-5.907-11.08-.759-1.658-1.644-3.727-2.134-4.422-1.996-2.722-3.703-5.36-5.203-7.743-1.51-2.353-2.969-4.581-4.319-6.339-.691-.897-2.365-2.299-3.97-3.664-2.524-2.19-5.706-4.9-8.528-8.425l-3.908-4.904c-2.281-2.881-4.418-5.607-6.561-8.136-3.438-4.041-5.48-8.166-7.056-11.524-.612-1.181-1.438-2.839-1.815-3.375-1.489-1.642-3.376-3.346-5.371-5.13-2.147-1.947-4.575-4.174-6.989-6.679a301.493 301.493 0 0 1-5.685-6.365c-1.996-2.328-3.9-4.547-5.698-6.36-1.313-1.327-3.283-2.768-5.313-4.359-2.398-1.843-5.098-3.886-7.78-6.445-3.812-3.672-6.29-7.591-8.34-10.703-.398-.611-.847-1.286-1.216-1.909-.41-.084-.788-.134-1.115-.222-4.536-.825-11.392-2.069-17.227-7.048A79.052 79.052 0 0 1 44.619 201C17.35 251.961 1.293 309.957.073 371.696-3.697 566.085 139.988 728.993 328.505 754c-.352-1.294-.712-2.579-.964-3.965-1.228-6.734.222-12.634 1.22-16.583Z"/><path fill="#005BAA" d="M295.117 492.407c.634 1.548 1.705 3.447 2.834 5.548 1.705 3.04 3.67 6.509 5.295 10.564 2.532 6.622 2.066 12.845 1.776 17.035-.034.637-.122 1.467-.138 2.071l1.935 5.012c1.247 3.183 2.503 6.445 3.733 9.892.525 1.435 1.507 3.334 2.503 5.351 1.532 3.066 3.271 6.492 4.668 10.598-.125-.26-.176-.403-.176-.403.302.487 1.281 1.875 1.953 2.885 2.309 3.15 5.42 7.452 7.255 13.143.664 2.042 1.537 4.261 2.432 6.693 1.246 3.188 2.502 6.454 3.594 10.073 1.793 5.85 1.566 11.336 1.448 15.37-.096 1.115-.096 2.625-.096 3.317.567 1.741 1.28 3.753 2.083 5.85 1.154 2.953 2.414 6.278 3.426 9.968l3.451 12.942.974 3.711c.391 1.489 1.147 3.464 2.016 5.565 1.255 3.146 2.674 6.727 3.732 10.837.895 3.736 1.424 7.343 1.919 10.526.353 2.436.693 4.785 1.155 6.726 1.067 4.563 1.247 8.866 1.373 12.317.05 2.042.185 4.131.445 5.318.466 2.008 1.155 4.231 1.86 6.63.903 2.96 1.915 6.324 2.721 9.913.227.55.911 1.795 1.436 2.684 1.902 3.301 4.501 7.817 5.635 13.651 1.386 6.781-.13 12.853-1.113 16.799-.176.579-.315 1.254-.445 1.866.353 1.183.773 2.68 1.298 4.261a76.329 76.329 0 0 1 2.469 8.694c.961.037 1.793.113 2.678.113C483.423 760.112 585.124 713.453 656 637.566 524.328 536.49 362.63 501.075 294 490c.416.801.777 1.611 1.117 2.407Z"/><path fill="#FAA81A" d="M755.935 386.686c.534-28.709-2.229-56.71-7.805-83.686-2.346.41-4.739.787-7.061 1.197-6.487 1.181-12.268 5.396-18.452 6.61-6.34 1.298-12.398 3.232-18.499 4.634-6.717 1.541-13.514 1.792-19.917 3.479-6.537 1.624-13.515 1.08-19.754 2.855-6.323 1.825-11.621 6.727-17.595 8.653-6.617 2.114-13.557 2.637-19.779 4.843-6.382 2.235-13.603 1.918-19.615 4.262-6.092 2.424-11.08 7.284-16.777 9.753-6.306 2.684-13.309 3.441-19.107 6.192-6.428 3.039-11.16 8.858-16.966 11.931-6.021 3.13-12.029 5.713-17.457 8.891-5.971 3.457-12.449 5.609-17.738 9.004-5.87 3.747-9.93 9.47-15.014 13.065-5.849 4.178-10.24 9.486-15.115 13.371-5.659 4.563-12.561 6.673-16.957 10.721-4.454 4.039-9.291 6.819-13.053 9.808l-8.472 13.588c-1.772 6.388-1.772 11.098-4.493 7.159L428 482.365C504.844 505.803 596.899 544.466 678.726 608c46.96-61.616 75.572-138.026 77.209-221.314Z"/></g></svg>