<svg xmlns="http://www.w3.org/2000/svg" width="592.57208" height="217.12747" viewBox="0 0 156.7847 57.44831"><path d="M130.5 100.747H83.118V84.67H130.5z" style="fill:#02983b;fill-opacity:1;fill-rule:nonzero;stroke:none;stroke-width:.352778" transform="translate(-28.953 -84.669)"/><path d="m125.48 120.175-42.362 21.942v-17.08l47.382-24.29v10.686c0 3.606-1.552 6.947-5.02 8.742" style="fill:#004097;fill-opacity:1;fill-rule:nonzero;stroke:none;stroke-width:.352778" transform="translate(-28.953 -84.669)"/><path d="M185.738 100.747h-48.456V84.67h48.456zM76.335 100.747H28.953V84.67h47.382Z" style="fill:#02983b;fill-opacity:1;fill-rule:nonzero;stroke:none;stroke-width:.352778" transform="translate(-28.953 -84.669)"/><path d="m71.317 120.175-42.364 21.942v-17.08l47.382-24.29v10.686c0 3.606-1.554 6.947-5.018 8.742M137.282 114.8v8.246a7.833 7.833 0 0 0 7.834 7.833h40.622v-16.08z" style="fill:#004097;fill-opacity:1;fill-rule:nonzero;stroke:none;stroke-width:.352778" transform="translate(-28.953 -84.669)"/></svg>