<svg xmlns="http://www.w3.org/2000/svg" width="742" height="302" overflow="hidden"><defs><clipPath id="a"><path d="M16 236h742v302H16z"/></clipPath></defs><g fill-rule="evenodd" clip-path="url(#a)" transform="translate(-16 -236)"><path fill="#FFF" stroke="#FFF" stroke-linecap="round" stroke-linejoin="round" stroke-miterlimit="10" stroke-width="20" d="M484.053 247.755c-.413-.342-.849-.607-1.381-.683-2.097-.424-4.176 1.065-7.354 3.562l-2.456 1.814c-8.663 4.54-15.277 25.856-16.747 34.611-.262.13-.46.254-.92.483-5.335-9.038-15.044-17.453-25.195-18.724 4.021 15.144 17.553 60.903 35.561 56.94 9.153-2.02 28.242-39.958 28.44-60.874v-.772c-.144-11.07-5.33-15.014-9.948-16.357ZM604.489 482.201c-22.382.943-29.809-.27-51.741 7.033-3.068.943-5.727 3.015-8.196 5.85.355 4.679-2.411 12.097 1.889 13.85.225.031.201.733.414 1.118 1.268 1.291 2.583 1.477 3.862 3.129.829 1.183 1.51-.126 2.375.366.409.421.622 1.165 1.054 1.243 2.15 1.028 4.134.625 6.272 1.682 1.084.883 2.174.697 3.252.871.651-.259 1.498 1.291 1.718 1.682 4.08 1.729 7.829.174 11.958.108 12.42-.192 10.08-1.429 22.494-1.634 10.459-.15 20.635 1.466 31.082 1.304 5.656-.193 11.81 0 17.461-.397 9.997-.601 20.018.967 30.034 1.087 5.01-.12 10.826 1.868 15.872 2.246 5.449 0 10.596-1.381 16.128-.276 1.723.145 3.477-.12 5.253.715 1.6.835 3.411 1.652 4.916 1.778 4.839.354 9.074-1.478 13.741-3.261 2.778-.847 5.573-1.334 8.096-2.943 1.273-.595 2.464-2.637 2.955-4.727 1.304-3.791 2.346-7.965.978-12.283-.243-.018-.889.3-1.114-.09-.485-.721-.361-2.481-1.054-2.541-2.013-.823-3.968-.991-5.97-1.465-2.659-.571-5.354-1.826-8.007-2.343-12.391-3.063-83.274-13.904-125.722-12.102ZM387.606 490.229c2.26.498 4.824.457 6.051 1.948 1.217 1.171-1.204 3.107-1.062 4.664-.047 3.701 1.348 7.046 1.3 10.753.071.618-.243 1.218-.943 1.883-.635.927-1.662 1.907-2.706 2.555-3.127 1.99-7.232 1.218-10.846 2.269-4.628 1.42-9.742 1.931-14.453 2.43-8.734.897-16.993-.944-25.834-1.212-3.34-.184-6.96.268-9.796 1.307-3.963 1.057-8.004.903-12.068.761-20.998-.761-41.61-1.2-62.531-1.04-3.66.143-7.671.618-11.338.748-16.809.939-33.582.648-50.403 1.094-5.874.148-11.73.315-17.616.16-3.299.077-6.598.148-9.516.22-12.425.636-25.187 1.224-37.677.707-4.758.042-9.873.095-14.655.13-13.89.737-28.047 3.025-42.031 2.228-10.295-.546-19.96-2.905-29.406-7.758-6.42-3.333-11.445-7.92-15.076-13.451 2.397-3.119 6.016-4.36 9.992-5.323 9.356-2.554 18.072-4.176 27.494-5.775 7.987-1.342 15.29-1.995 22.962-2.685 100.652-9.012 213.408-5.656 257.391-2.708 14.792.998 28.551 2.946 42.767 6.095ZM568.879 396.385v1.142c.89 2.287 2.675 2.873 4.46 4.584h5.834c0-1.148 1.346 0 1.346-1.148 1.352 0 3.327-.563 4.287-2.281h.949c.972-1.735 2.407-2.907 4.328-2.907 2.396-2.861 4.786-5.733 7.193-8.6 0-1.16.475-2.297 1.423-2.89 1.453-5.152 2.396-10.897 4.809-16.09 0-1.706.949-4.01.487-5.739.462 0 .937 0 .937-.568-.475-2.328.948-3.465 1.921-4.602.96 0 1.897 0 2.395-1.155V355c2.384 0 5.094 1.724 6.979 3.997h3.161c0 1.179.629 1.179 1.269 1.754 2.514 0 8.059-.575 10.608.556 0 1.724 2.52 1.155 3.149 2.884.617 1.718.617 3.435 1.897 5.177 0 .562 0 1.125-.646 1.729 1.269 1.705 2.514 4.583.646 6.295.617 2.31 0 5.188 1.251 7.498-1.251 1.131-.628 2.872-.628 4.021 1.245 2.286 1.245 5.17 1.903 8.048 2.502 2.86 1.886 6.325 3.789 9.192v3.416c1.246 0 0 1.753 1.246 1.753.628 3.465-1.246 7.48-1.246 10.945a46.436 46.436 0 0 0-1.897 1.723v1.137c-.647 0-1.263 0-1.263-.592-1.287 1.735-3.149 2.884-4.43 4.608-1.251-.575-1.879.574-2.52.574-1.251 0 0 1.723-1.251 1.723-1.281 0-2.549.574-3.172 1.149-1.275.574-5.556-.58-6.807.574l-.623-.574c-.634.574-1.269 1.149-2.538 1.149 0-.581 0-1.149-.623-1.149-.64 1.717-3.403 2.884-5.046 2.304-.551-1.149-.332-1.99-1.767-2.523-.474-3.625-.474-6.752-2.395-9.861.462 0 .462-.515.462-1.03-.462-1.563-1.411-3.121-1.411-4.673-1.459-2.096-1.933-5.181-3.831-6.739.486-.533-.978-1.048-.504-1.57-.931-1.018-1.417-1.551-2.389-2.588-.937 0-.937.528-1.424 1.037-.486 2.588-2.881 4.672-3.367 7.266l-.463-.515c-.486 1.552-1.921 2.588-1.921 4.158-.949.497-1.447 2.061-2.372 2.576v1.048c-3.368 3.097-5.2 8.131-9.215 10.299-1.002 2.173-3.54 2.605-4.536 5.028-1.518 0-3.89.598-5.757 1.196-1.264-.604-3.137-1.83-4.389-.604 0-.598-.646-.598-1.251-.598l-.616.598c-1.263-1.226-3.119 0-5.005-.598-3.783-3.045-8.159-4.246-12.53-6.657-1.274 0 0-1.818-1.274-1.818-.629 0-1.228 0-1.862-.592 0-1.824.634-3.038-1.257-4.24l.628-.605c0-.592-.628-.592-1.239-.592-.634-3.642-2.508-6.668-3.119-10.275-.67-.61-.67-.61-1.263-1.214 0-1.824-.616-3.612-1.274-4.832-.624-2.411 1.559-4.436.343-6.752 0-.545 0-1.143.617-1.699-.617-2.884 0-4.614.599-7.486-.599 0-.599-.557-.599-1.143 1.192-2.28 1.192-4.613 1.192-6.9.575-1.723 1.766-3.434 2.365-5.176l-.599-.568c1.193-1.149.599-2.866 2.402-4.027 0-.581 0-1.137-.599-1.137 0-1.167 1.192-1.729 1.779-2.316.599-1.155 2.911-5.668 4.346-6.544l-.456-.681c1.038-1.487 3.73-2.097 5.841-2.292 1.606-.142 4.654 1.422 5.55 1.913.676 1.362.041 2.428.925 4.157h.901v1.155c0 .574.439.574.878.574.451 1.718 1.358 3.429.895 5.171 0 .568.457.568.913.568-.456 1.149.89 2.31.89 3.459-.89 1.125 0 2.872-.457 4.602 1.352 2.86.913 6.312 2.236 9.185-.006 2.304.901 4.607 1.802 6.349ZM337.937 417.634s2.335 1.533 2.957 2.634c.628 1.112 1.855 2.509 2.726 2.853a24.04 24.04 0 0 1 2.447 1.189l.782 1.604 1.95 1.806c2.063.621 2.478-.604 4.054 1.562.681 0 1.375 0 1.375.604l.693-.604c.682 1.213 2.069 1.817 2.762 2.433 2.068 0 3.834.757 5.238 1.959.67 0 .777 1.402.777.805 2.11.562 3.526 1.964 4.919.722.675 0 1.368 0 1.368.615l.664-.615c1.393-.592 1.701 1.042 3.076.438.705 0 .705.604.705 1.219h1.357c1.381 1.231 7.248-.397 8.635.846 7.792.989 20.498-.816 20.498-.816.066-1.19 1.974.089 2.039-1.083l.64.597c2.595.728 5.351-2.261 7.941-.982.693-.539.693-.539 1.381-1.101 1.321-.527 3.218 1.906 4.604.225-.035.586.623.615 1.275.639.047-.592.047-.592.053-1.166 2.038-1.071 4.533-.805 6.033-2.415.669.065 1.961.183 2.625.272l1.44-1.041c3.408-.811 6.388-3.499 10.252-4.38.61-.64 1.932-.758 2.483-1.995a29.013 29.013 0 0 1 1.974-.153c.586-.634 1.203-1.303 1.778-1.919 2.038.386 3.804-2.373 5.748-2.663-.094-.562-.183-1.166.451-1.261l.752.486c1.221-.811 1.221-.811 1.665-2.054 2.033.266 3.141-2.237 4.244-3.599.657-.082.657-.082 1.303-.171.551-.687.551-.687 1.109-1.367.651-.101.651-.101 1.327-.225 1.742-1.462 2.75-3.386 5.25-4.369-.089-.574-.213-1.153.457-1.284 1.404.385 1.102-1.355 1.641-2.024.57-.396 2.305-1.628 2.756-1.071-.095.971 1.695-2.486 1.612-1.545.462.574 2.72-5.303 3.248-5.705l-5.476-14.289c-2.033 2.847-9.209 12.229-13.061 13.105.059 2.994-3.295 3.142-5.583 4.876.124.551.284 1.137-.373 1.285-1.927.438-2.756 2.58-4.036 2.853-.137-.563-.788-.415-1.434-.267-.51.717-1.772 1.001-2.146 2.303-1.932.432-2.5 2.338-3.615 3.664l-.741-.456c-2.31 2.119-5.676 1.9-7.271 4.516-3.727 1.746-6.903 2.349-10.768 3.793-.646.048-1.303.089-1.351-.52-.574 1.219-3.271.243-3.84 1.444-3.982.266-7.295-.124-11.189.74-.1-1.154-2.002.124-2.068-1.018-3.236 1.385-6.519-.444-9.819-.444-.658-.604-1.974-.604-2.638-1.752-3.289.58-5.274 0-7.259-1.764-1.979 0-3.307-1.775-5.274-2.344v-1.154c-.653-.598-.653-.598-1.334-1.166 0-1.758 1.979-1.758 3.301-2.343 1.328-1.747 4.889-1.344 6.199-3.102 0-.592 1.778-1.729 1.778-2.308.645-1.172 1.108-2.291 1.766-2.291 1.985-1.166.687-2.533 3.33-3.101 0-.598 2.074-2.03 1.393-2.628 2.643-1.746 2.589-2.758 3.259-6.274 1.304-1.728 3.259-3.652 3.259-6.008.652-.574-.153-3.119 1.174-3.711.646-4.078-1.043-6.268-1.043-10.351l-1.328-1.161c0-1.776-1.321-2.929-.651-4.681-1.974-1.77-1.488-2.327-3.473-4.073l-1.132-1.189h-1.327c-.658-1.178-2.638-1.746-2.638-2.942-2.637-.574-5.274-2.32-7.893-3.504l-.676.598-.669-.598c-.646.598-.646.598-1.328 1.184 0-1.782-1.967 0-2.62-1.184-1.333 0-2.654-.598-3.958.598-3.959-1.189-8.237.864-12.202-.87 0 1.166-2.637-.598-2.637 1.166-1.315.574-3.236.533-3.876 1.083h-1.991c-1.997 1.764-3.639 3.824-7.579 3.824-1.322 0 0 1.74-1.322 1.74h-1.316c-3.307 2.93-5.932 6.451-9.891 8.783 0 .592-1.333 1.155-.663 2.338 0 .604-.67.604-1.339.604 0 1.142-.64 1.734-1.31 2.326 0 .592 0 1.172.663 1.172 0 .592-1.007 2.071-1.659 2.071-.658 2.344-.658 4.706-2.643 5.854 0 4.682-1.375 6.931-1.683 12.074.462 2.717.688 6.848.688 9.281 2.062 1.243-.504 1.171.865 3.001.681 0 .32 1.048.32 1.669.681 1.219 2.88 2.095 2.169 3.332 0 .609 1.149 1.154 1.831 1.154.699 1.213-1.008 2.569.379 3.179 0 .603 2.193.13 1.493 1.343l1.192 2.64Zm42.994-38.099c-1.327.615 0 1.853-1.327 2.468l.669.609c-.509 5.025-3.656 11.856-10.667 16.703-.651 0-1.333 0-1.333-.616 0-1.254-1.357-3.095-.658-4.332 0-.609-.706-.609-1.351-.609 1.351-1.243-.901-2.48-.196-4.345-.705 0-.705-.604-.705-1.231 2.015-1.237.379-4.41 2.388-5.629l-.657-.633c.657-1.225 1.7-3.143 2.998-4.403v-1.232c2.679-2.468 6.163-3.563 9.506-4.758.669 0 1.327 0 1.327.58 2.009 2.504.676 4.948.006 7.428Z"/><path fill="#FFF" stroke="#FFF" stroke-linecap="round" stroke-linejoin="round" stroke-miterlimit="10" stroke-width="20" d="M495.044 373.964c.077.818.172 1.617.256 2.404 4.536 4.369 3.65 11.816 6.664 17.145-1.438 1.853-.422 4.162-1.04 5.885l1.772 1.397c-1.201 4.25 1.665 7.974 1.267 12.118-.744.905-.744.905-1.464 1.817.078.799.179 1.605.975 1.522l-.713.894.874.716-.725.912c.797-.125.892.687.969 1.527-1.439 1.776 1.213 3.919-1.034 5.814.897.71.963 1.521 1.04 2.344-2.241 1.906-.868 5.388-2.45 7.892l.833.763-.785.876-.85-.787c-.809.042-.779.864-.755 1.657.838 1.582 2.497 3.109.915 4.832l.832.746c-2.401 1.758-3.115 3.824-3.81 6.186-.744.811-.744.811-1.487 1.628.791.752.821 1.503.821 2.297-1.469 1.628-2.206 3.22-3.669 4.854 0 .77.815 2.303-.696 3.132l.791.752c-.755 1.605-1.433 3.955-2.146 5.571.755-.053.761.722.761 1.492-2.23 1.681-4.804 3.457-3.972 6.518-1.444 2.409-3.33 3.22-4.804 5.641.803 1.492-2.646 2.209-2.61 3.76.018 1.545-2.248.911-1.451 2.397l.773.752c-.755.066-.755.066-1.48.095-.761 1.592-.761 1.592-2.23 2.433.006.776.036 1.575-.737 1.604-1.338 1.013-2.01 2.215-3.46 3.849.772.751-2.42 2.356-1.689 2.403-.832.711-1.641 1.474-1.796 3.002-.743-.036-1.504-.054-1.581.692l.047 1.007c-.535.544-.672.533-1.783.787-5.892 6.707-14.508 9.342-20.43 16.008-1.599.728-3.163 1.415-4.738 2.125-1.606.681-1.064 3.026-2.474 2.167.078-.764-2.027.675-2.783.645-1.67 1.475-4.126.379-5.666.296.072-.757-.826-.591-1.516-1.391l-.832.728c-.666-.823-2.384-2.385-3.145-2.439-.672-.787.821-1.61.065-1.639l.85-.752c.066-.752-1.201-.942-1.95-.983-1.367-1.622 1.54-.397.928-2.019l-2.955-.231c-.702-1.533-2.152-1.569-2.771-3.161.137-1.51 3.454-1.48 3.591-3.055 1.51.095 1.064-.142 2.664-.864l-.565-1.101c1.611-.74 1.362-2.049 2.105-2.019-.036.775.588-.119 1.325-.071.762.041 1.505.071 1.606-.693.059-.781.125-1.557.963-2.297.743.065.743.065 1.511.095 3.281-2.96 1.183-.989 4.566-4.712.059-.77.059-.77.136-1.54.815-.734.952-2.273 2.557-2.983-.077.781-.178 1.545.618 1.592 2.385-1.444.946-2.291.345-3.848.827-.77.827-.77 1.659-1.468-.089.775 1.255.172.511.13-.071.776.791-1.8 1.546-1.764 1.861-2.866.505.515 3.282-4.796.577-.586 1.998-1.112 2.128-1.503-.16-.071 1.766-.752 1.083-1.563-.107-.616.184-.87-1.392-.154.904-1.516 3.544-3.789 3.681-5.346 2.194.894.446-2.593 1.956-2.528-.821.717-1.582-.763-1.558.012l2.509-.071c1.671-1.468-2.319-1.403-.832-3.06-.018-.764-.244-1.202-.987-1.161-.042-.775-.214-1.409.541-1.45l.773.74c.731-.818-.719-3.428.767-4.286-.012-.776-.012-1.563-.036-2.351 2.236-1.646 1.231-1.374 1.921-3.747l-.761-.729c.011.764 1.623-.722.868-.686-.024-.805-.024-.805-.024-1.581 1.493-.852 2.533-6.015 2.491-7.571.036 1.562-1.76-3.553-.237-2.842 2.187-3.256.695-7.554 1.04-11.515-1.588-.58 1.225-1.711.351-3.143-.744.071-1.499.171-1.594-.604.684-.864.684-.864 1.326-1.759-.065-.751-.143-1.527-.886-1.426-.071-.776-.131-1.569.607-1.64-.113-.775-.167-1.539-.922-1.45.666-.877.666-.877 1.35-1.747-.083-.769-.832-.681-1.576-.562.44-3.221-2.783-5.53-1.611-8.786-.731.077-.815-.68-.892-1.474 2.009-2.599-.737-5.724.518-8.235-1.564-.574-.964-2.232-1.142-3.789.678-.858-1.261-1.627-1.344-2.391-1.903-3.683-1.356-6.613-2.581-10.538-1.48 1.338-2.568-10.816-3.864-15.534-1.95-3.037-.66-6.465-1.813-9.603.802-.094 1.623-.19 1.551-.994-1.064-2.321 1.284-3.446 1.837-5.95 1.623-.201 3.134-1.22 4.935.195 1.529-.988.583-2.51.482-3.315 3.223-.385 5.655-.716 8.895-1.113.083.811.148 1.622.969 1.522 2.414-.314 3.401 1.184 5.815.893.089.823.155 1.629.98 1.54 1.594-.213 2.486.485 3.39 1.207.808-.106 1.623-.207 1.528-1l.891.675.732-.882c.88.71 1.67.61 2.485.485.898.722 1.142 3.132 2.693 2.149 3.877 6.062 8.521 11.213 11.583 17.375ZM139.637 388.442c-.266-1.312-2.143-1.688-2.9-1.706-.793-.012-2.244 1.628-2.983.34 0 0-1.279 2.093-2.836 3.203-1.047.757-2.651.638-2.651.638-.385 1.992-.598 2.213 1.142 6.877.787.149 1.604 4.61 2.468 4.82-.366-1.719 2.285 3.691 3.143 4.449l1.089.286c.545.143.279.65.036 1.121l2.415 1.718c.243.651.758.847.19 1.778 1.846.125 3.012 1.24 4.557 1.92.533.233.202.674-.1 1.139.503.209 1.012.442 1.343 0 1.332 0 .379 1.366.581 2.016l.828-.214c.19.667 1.219 1.121 1.219 1.121 1.611 2.463 9.454 5.469 11.407 7.706l.769-.376c.616 1.282 4.067 1.521 4.067 3.191l.722-.441c.367.608 5.552 1.598 6.991 2.374.722-.454-.308-1.223.479-1.611.859.728 2.652 2.38 3.481 3.149 0 0 2.243.168 3.841.543 2.013 2.147 6.145.823 8.607 1.926.325.639.841.776 1.361.895l.788-.394.314.621c1.526-.787 2.361-.03 3.379-.912l.314.631.757-.411c.309.632.309.632.604 1.288 2.143.472 4.085 1.48 6.387.299.296.632.853.757 1.368.87.763-.399.763-.399 1.556-.769 1.604.358 1.9.99 3.765.853l.29.62c2.315-1.157 3.919-.823 6.055-.334.468-1.014 1.61.382 2.072-.656l.302.644c1.782-1.312 4.529-.626 6.375-.703l.284.649c.787-.375.474.054.474.054 1.557-.727 5.333-.787 6.345-1.64 2.149.561 2.066.967 4.984.578.598.138 1.8.406 2.356.591 2.386-1.586 4.451-1.539 6.493-.364 2.356-.453 6.115-2.308 8.169-3.4.586.161 1.196.347 1.782.52.888-.329 1.468-.132 2.072-1.122 2.64-.912 4.546-1.837 6.925-3.447.272.674 1.764-.591 2.054.041.296-.465.296-.465.598-.96 1.166.364 2.054-1.115 3.226-.757.314-.471.314-.471.604-.96 1.787-.621 1.083-1.08 2.841-1.677 1.521-1.043 3.652-4.622 7.12-6.155-.082-1.151 2.203-1.777 2.712-2.785.248-.507.858-.376 1.45-.263l-.338-.632c.841-.388.598-2.058 1.397-1.318.225-.507 1.232-1.843.74-1.938 1.688-1.337 1.664-5.685 4.156-6.233.219-.537.219-.537.432-1.026.989-1.336.603-3.817 1.166-4.145.195-.496-.077-.86.444-.728.633-2.004 1.107-5.046 1.693-7.742-.504-.114-.267-.62-.054-1.133.498.113.717-.4.948-.901-.504-.125-.285-.656-.071-1.157l.722-.382c-1.019-.233.136-1.622-.882-1.854l.698-.412c-.864-2.451.385-4.938-.467-7.378l.656-.4c-1.177-1.389-.976-2.863.042-4.312-.361-.638-.178-1.151 0-1.682-1.373-.865.296-1.783-.556-2.553.497-1.539-1.214-3.065-.184-4.515-.674-1.276-.811-1.813-1.545-3.054.142-.548.29-1.079.444-1.61-.509-.107-1.036-.214-.911-.745.822-.961-.077-1.682.23-2.75-1.035-.197-.485-1.098-.84-1.712-.332-2.857-1.078-5.01-2.759-7.443.699-1.05-.739-5.207-.674-6.513l-1-.538c-.433-1.33-.906-2.015-1.901-2.713.047-.651.047-.651.083-1.301-.515-.035-1.03-.059-.983-.721.03-.632.03-.632.066-1.301l-.575.621c-.958-.698-1.385-2.004-1.313-3.34-1.906-2.702-2.629-4.646-5.34-8.577-1.066.65-.047-2.034-1.326-1.426-1.462-3.334-2.42-4.145-4.581-6.191.083-.644.083-.644.124-1.312-.598-.018-.598-.018-1.184-.047-.603 0-.527-.668-.461-1.318-3.398-2.1-15.444-3.794-17.29-7.134-1.054-.059-2.072-.739-2.694.579-.473-.692-.473-.692-.947-1.366-2.817 1.872-5.179-1.485-7.784-2.219l-.568.62c-.912-1.986-2.652-.072-3.723-.084-.45-.685-.995-.721-1.516-.733-2.764 1.229-5.303-.161-7.677 3.066l-.485-.68 6.002 11.284c-.136.615 1.545 7.641 3.143 11.166.545.101 1.237 1.372 1.616 2.105-.142.609-.142.609-.266 1.247.805 1.461 1.604 2.91 2.397 4.396-.545-.126-.681.483-.817 1.121.639 2.075.622 4.324 1.243 6.34.847.752-.136 1.205.787 2.153.089.096-.562 1.318-.432 1.378-.373 1.026.267 2.248.267 2.248.307 2.249.189.466 1.746 2.076-1.439 1.73.976 4.557-.462 6.269.775.811.8-.334 1.054.304-.261.459-.261.459-.509.925-.243.47.243.644.746.847.497 1.264-.409 2.015.254 3.238.503.126.041 1.682.545 1.796.159 1.151 1.592 1.491.218 2.29-.497-.131-.218 2.159-.739 3.692.326.608.005 3.233-.16 3.757.515.119.864-.507.681 0l-.355 1.009c.514.113.462 1.049.266 1.55-.024 1.629-1.06 2.463-1.581 3.966-.592 3.293 1.113 5.965-1.106 7.14.799.721-.184 1.598-.409 2.123-.734.346-.538 1.945-1.208 2.344-.828 2.016-1.225 1.897-2.047 3.907-1.344.787-1.569 1.658-2.901 2.445-.213.496-.213.496-.42.99-.195.507-.663.382-1.119.293-.87.906-3.931 2.32-4.356 3.286l.26.626c-1.817.674-2.344.901-4.362 2.076-1.995 1.199-3.481 1.211-5.559 2.284-1.823-.513-3.373.841-5.191.323-.704.375-1.391.757-2.095 1.079-.918-.25-2.279.471-2.972-.268-.905-.233-.716 1.455-1.61 1.223-.45-.138-.45-.138-.905-.269l-.214-.614c-1.397.733-2.515-.144-3.906.566l-.219-.59c-1.386.709-2.54-.084-3.421.829-1.167-.805-3.7-.829-5.748-.675.183-.512-.267-.602-.74-.673l-.669.429c.207-.519-3.913-.226-4.368-.28l-.942-.179-.284-.608-.651.417c-.746-.662-5.67-1.163-6.843-2.457-.94.894-1.835.501-2.9.28-4.398-.28-9.761-2.237-10.305-2.356l-.32-.65c-1.527.781-4.066-.048-4.729-1.288-.545-.126-1.279-.191-1.812-.358-.568-1.312-4.042-1.062-4.474-2.368 0 0-1.741-1.217-2.481-2.112-1.136.704-3.984-2.731-4.516-2.958l-1.906-.071-.681-2.07-2.569-1.938c-1.054-1.945-2.101-.418-2.439-2.064Z"/><path fill="#FFF" stroke="#FFF" stroke-linecap="round" stroke-linejoin="round" stroke-miterlimit="10" stroke-width="20" d="M180.048 313.904c.726.019 1.445.06 2.123.109 3.42 3.545 10.163 2.515 14.617 4.788 1.785-1.303 3.723-.525 5.346-1.128.542.711.542.711 1.077 1.423 3.919-1.182 6.024.808 9.752.537.922-.585.922-.585 1.838-1.194.696.09 1.386.199 1.19.838l.909-.591.5.742.909-.573c-.219.657.488.759 1.19.802 1.808-1.14 2.92.41 5.001-1.338.464.777 1.16.88 1.861.994 2.076-1.76 2.813.084 5.353-.754l.44.79.921-.506-.41-.808c.244-.651.927-.482 1.612-.338 1.123.965 1.891 2.4 3.824 1.502l.386.802c1.201-.857-8.07-1.279 6.393-1.743.927-.416.927-.416 1.849-.844.363.778.999.965 1.653 1.139 1.844-.844 3.396-1.085 5.251-1.917.648.157 1.653 1.127 2.855.121l.362.747c1.582-.205 3.783-.295 5.328-.506-.249.591-1.04-.838-.428-.555 2.23-1.14 4.633-2.484 6.72-.808 2.468-.272 3.55-1.532 6.036-1.719.815 1.188 2.807-1.145 3.991-.494 1.165.597 1.206-1.068 1.98.138l.208.857c.369-.501.369-.501.743-1.055 1.522.12 1.522.12 2.813-.609.577.337 1.154.693 1.528.15 1.362-.554 2.569-.554 4.424-.958.214.898 1.547-.417 1.202.126.915-.229 1.873-.404 3.015.271.356-.536.737-1.079 1.314-.735l.678.518c.654-.102.714-.211 1.475-.82 7.718-.699 12.018-4.516 19.684-4.516 1.343-.627 2.705-1.23 4.037-1.851 1.333-.622 2.551 1.049 2.807-.356-.541-.386 1.576-.928 1.981-1.423 1.878-.205 3.044-3.515 3.811-4.577-.559-.38.03-.868-.13-1.785l.921-.15c-.184-.893-.356-4.649.012-5.186-.167-.881-1.505-.314-1.142-.856l-.333-.628c-.547-.379.167-1.332.542-1.839-.363-1.815-1.981.23-2.742-1.055l1.409-2.111c-.648-1.284-3.497-2.037-4.597-2.797-.761 1.079-.701.645-2.021 1.326l-.447-1.001c-1.331.718-2.105-.145-2.479.368.547.356-.369.313-.738.826-.398.537-.761 1.073-1.32.681-.559-.361-1.118-.729-2.046-.572-.38.555-.38.555-.749 1.049-3.728.639-12.149.85-12.993-.314-.934.224-.934.224-1.856.465.601.313-.487 1.013-.13.446.594.326-1.695-.314-2.04.259-2.98-.03-9.539.651-8.254-.127-1.511-.072-4.454.736-5.626.115-.44 1.966-2.539-1.109-3.175 0 .927-.247-1.172-.38-.565-.096l.071.778c-1.867.578-1.98-1.188-3.835-.513-.631-.265-.899-.585-.595-1.134-.625-.235-1.053-.609-1.35-.012l.297.802c-.928.35-2.492-1.561-3.717-.681-.63-.247-1.225-.501-1.861-.748-2.135 1.224-4.436 1.164-6.654 1.345l-.422-.754c.642.139-1.077 1.188-.827.579-.66-.151-.66-.151-1.321-.283-1.129 1.085-5.815 1.049-7.124.735 1.314.314-2.646-2.303-2.402-.947-3.318 1.303-7.113-.65-10.632-.681-.215-1.375-1.696.893-2.814.048.221-.626.435-1.247-.214-1.374-.88.5-1.528.289-2.402.82-.654-.072-1.35-.163-1.13-.79-.678-.079-1.362-.157-1.552.434-.666-.084-1.344-.175-1.148-.778-.856.506-1.742 1.188-2.586 1.737-.667-.042-.5-.675-.334-1.303-2.89.41-4.531-2.231-7.582-1.224.161-.597-.487-.657-1.195-.723-2.533 1.706-6.131-.145-8.48 1.061-.398-1.266-1.915-.652-3.276-.664-.827.604-1.363-.946-2.028-.958-3.141-1.327-5.805-.67-9.194-1.423 1.302-1.321-9.432-1.375-13.547-2.123-2.569-1.405-5.727-.09-8.42-.826-.155.669-.303 1.363-1.017 1.351-1.987-.718-3.17 1.302-5.447 1.954-.304 1.35-1.76 1.995-1.362 3.159-1.005 1.345-1.136 1.574-1.85 1.556-.6 2.713-1.058 2.43-1.748 5.119.714.072 1.427.084 1.249.754-.535 2.002.713 2.78.178 4.794.708.042 1.446.078 1.243.748-.333 1.356.196 2.05.738 2.767-.185.669-.358 1.345-1.065 1.315l.523.705-.88.628c.548.717.375 1.38.19 2.05.535.699 2.659.826 1.624 2.134 4.971 2.979 9.087 6.591 14.248 8.87Z"/><path fill="#F58220" d="M484.053 247.755c-.413-.342-.849-.607-1.381-.683-2.097-.424-4.176 1.065-7.354 3.562l-2.456 1.814c-8.663 4.54-15.277 25.856-16.747 34.611-.262.13-.46.254-.92.483-5.335-9.038-15.044-17.453-25.195-18.724 4.021 15.144 17.553 60.903 35.561 56.94 9.153-2.02 28.242-39.958 28.44-60.874v-.772c-.144-11.07-5.33-15.014-9.948-16.357Z"/><path fill="#00AA7E" d="M604.489 482.201c-22.382.943-29.809-.27-51.741 7.033-3.068.943-5.727 3.015-8.196 5.85.355 4.679-2.411 12.097 1.889 13.85.225.031.201.733.414 1.118 1.268 1.291 2.583 1.477 3.862 3.129.829 1.183 1.51-.126 2.375.366.409.421.622 1.165 1.054 1.243 2.15 1.028 4.134.625 6.272 1.682 1.084.883 2.174.697 3.252.871.651-.259 1.498 1.291 1.718 1.682 4.08 1.729 7.829.174 11.958.108 12.42-.192 10.08-1.429 22.494-1.634 10.459-.15 20.635 1.466 31.082 1.304 5.656-.193 11.81 0 17.461-.397 9.997-.601 20.018.967 30.034 1.087 5.01-.12 10.826 1.868 15.872 2.246 5.449 0 10.596-1.381 16.128-.276 1.723.145 3.477-.12 5.253.715 1.6.835 3.411 1.652 4.916 1.778 4.839.354 9.074-1.478 13.741-3.261 2.778-.847 5.573-1.334 8.096-2.943 1.273-.595 2.464-2.637 2.955-4.727 1.304-3.791 2.346-7.965.978-12.283-.243-.018-.889.3-1.114-.09-.485-.721-.361-2.481-1.054-2.541-2.013-.823-3.968-.991-5.97-1.465-2.659-.571-5.354-1.826-8.007-2.343-12.391-3.063-83.274-13.904-125.722-12.102Z"/><path fill="#007AC1" d="M387.606 490.229c2.26.498 4.824.457 6.051 1.948 1.217 1.171-1.204 3.107-1.062 4.664-.047 3.701 1.348 7.046 1.3 10.753.071.618-.243 1.218-.943 1.883-.635.927-1.662 1.907-2.706 2.555-3.127 1.99-7.232 1.218-10.846 2.269-4.628 1.42-9.742 1.931-14.453 2.43-8.734.897-16.993-.944-25.834-1.212-3.34-.184-6.96.268-9.796 1.307-3.963 1.057-8.004.903-12.068.761-20.998-.761-41.61-1.2-62.531-1.04-3.66.143-7.671.618-11.338.748-16.809.939-33.582.648-50.403 1.094-5.874.148-11.73.315-17.616.16-3.299.077-6.598.148-9.516.22-12.425.636-25.187 1.224-37.677.707-4.758.042-9.873.095-14.655.13-13.89.737-28.047 3.025-42.031 2.228-10.295-.546-19.96-2.905-29.406-7.758-6.42-3.333-11.445-7.92-15.076-13.451 2.397-3.119 6.016-4.36 9.992-5.323 9.356-2.554 18.072-4.176 27.494-5.775 7.987-1.342 15.29-1.995 22.962-2.685 100.652-9.012 213.408-5.656 257.391-2.708 14.792.998 28.551 2.946 42.767 6.095Z"/><path d="M568.879 396.385v1.142c.89 2.287 2.675 2.873 4.46 4.584h5.834c0-1.148 1.346 0 1.346-1.148 1.352 0 3.327-.563 4.287-2.281h.949c.972-1.735 2.407-2.907 4.328-2.907 2.396-2.861 4.786-5.733 7.193-8.6 0-1.16.475-2.297 1.423-2.89 1.453-5.152 2.396-10.897 4.809-16.09 0-1.706.949-4.01.487-5.739.462 0 .937 0 .937-.568-.475-2.328.948-3.465 1.921-4.602.96 0 1.897 0 2.395-1.155V355c2.384 0 5.094 1.724 6.979 3.997h3.161c0 1.179.629 1.179 1.269 1.754 2.514 0 8.059-.575 10.608.556 0 1.724 2.52 1.155 3.149 2.884.617 1.718.617 3.435 1.897 5.177 0 .562 0 1.125-.646 1.729 1.269 1.705 2.514 4.583.646 6.295.617 2.31 0 5.188 1.251 7.498-1.251 1.131-.628 2.872-.628 4.021 1.245 2.286 1.245 5.17 1.903 8.048 2.502 2.86 1.886 6.325 3.789 9.192v3.416c1.246 0 0 1.753 1.246 1.753.628 3.465-1.246 7.48-1.246 10.945a46.436 46.436 0 0 0-1.897 1.723v1.137c-.647 0-1.263 0-1.263-.592-1.287 1.735-3.149 2.884-4.43 4.608-1.251-.575-1.879.574-2.52.574-1.251 0 0 1.723-1.251 1.723-1.281 0-2.549.574-3.172 1.149-1.275.574-5.556-.58-6.807.574l-.623-.574c-.634.574-1.269 1.149-2.538 1.149 0-.581 0-1.149-.623-1.149-.64 1.717-3.403 2.884-5.046 2.304-.551-1.149-.332-1.99-1.767-2.523-.474-3.625-.474-6.752-2.395-9.861.462 0 .462-.515.462-1.03-.462-1.563-1.411-3.121-1.411-4.673-1.459-2.096-1.933-5.181-3.831-6.739.486-.533-.978-1.048-.504-1.57-.931-1.018-1.417-1.551-2.389-2.588-.937 0-.937.528-1.424 1.037-.486 2.588-2.881 4.672-3.367 7.266l-.463-.515c-.486 1.552-1.921 2.588-1.921 4.158-.949.497-1.447 2.061-2.372 2.576v1.048c-3.368 3.097-5.2 8.131-9.215 10.299-1.002 2.173-3.54 2.605-4.536 5.028-1.518 0-3.89.598-5.757 1.196-1.264-.604-3.137-1.83-4.389-.604 0-.598-.646-.598-1.251-.598l-.616.598c-1.263-1.226-3.119 0-5.005-.598-3.783-3.045-8.159-4.246-12.53-6.657-1.274 0 0-1.818-1.274-1.818-.629 0-1.228 0-1.862-.592 0-1.824.634-3.038-1.257-4.24l.628-.605c0-.592-.628-.592-1.239-.592-.634-3.642-2.508-6.668-3.119-10.275-.67-.61-.67-.61-1.263-1.214 0-1.824-.616-3.612-1.274-4.832-.624-2.411 1.559-4.436.343-6.752 0-.545 0-1.143.617-1.699-.617-2.884 0-4.614.599-7.486-.599 0-.599-.557-.599-1.143 1.192-2.28 1.192-4.613 1.192-6.9.575-1.723 1.766-3.434 2.365-5.176l-.599-.568c1.193-1.149.599-2.866 2.402-4.027 0-.581 0-1.137-.599-1.137 0-1.167 1.192-1.729 1.779-2.316.599-1.155 2.911-5.668 4.346-6.544l-.456-.681c1.038-1.487 3.73-2.097 5.841-2.292 1.606-.142 4.654 1.422 5.55 1.913.676 1.362.041 2.428.925 4.157h.901v1.155c0 .574.439.574.878.574.451 1.718 1.358 3.429.895 5.171 0 .568.457.568.913.568-.456 1.149.89 2.31.89 3.459-.89 1.125 0 2.872-.457 4.602 1.352 2.86.913 6.312 2.236 9.185-.006 2.304.901 4.607 1.802 6.349ZM337.937 417.634s2.335 1.533 2.957 2.634c.628 1.112 1.855 2.509 2.726 2.853a24.04 24.04 0 0 1 2.447 1.189l.782 1.604 1.95 1.806c2.063.621 2.478-.604 4.054 1.562.681 0 1.375 0 1.375.604l.693-.604c.682 1.213 2.069 1.817 2.762 2.433 2.068 0 3.834.757 5.238 1.959.67 0 .777 1.402.777.805 2.11.562 3.526 1.964 4.919.722.675 0 1.368 0 1.368.615l.664-.615c1.393-.592 1.701 1.042 3.076.438.705 0 .705.604.705 1.219h1.357c1.381 1.231 7.248-.397 8.635.846 7.792.989 20.498-.816 20.498-.816.066-1.19 1.974.089 2.039-1.083l.64.597c2.595.728 5.351-2.261 7.941-.982.693-.539.693-.539 1.381-1.101 1.321-.527 3.218 1.906 4.604.225-.035.586.623.615 1.275.639.047-.592.047-.592.053-1.166 2.038-1.071 4.533-.805 6.033-2.415.669.065 1.961.183 2.625.272l1.44-1.041c3.408-.811 6.388-3.499 10.252-4.38.61-.64 1.932-.758 2.483-1.995a29.013 29.013 0 0 1 1.974-.153c.586-.634 1.203-1.303 1.778-1.919 2.038.386 3.804-2.373 5.748-2.663-.094-.562-.183-1.166.451-1.261l.752.486c1.221-.811 1.221-.811 1.665-2.054 2.033.266 3.141-2.237 4.244-3.599.657-.082.657-.082 1.303-.171.551-.687.551-.687 1.109-1.367.651-.101.651-.101 1.327-.225 1.742-1.462 2.75-3.386 5.25-4.369-.089-.574-.213-1.153.457-1.284 1.404.385 1.102-1.355 1.641-2.024.57-.396 2.305-1.628 2.756-1.071-.095.971 1.695-2.486 1.612-1.545.462.574 2.72-5.303 3.248-5.705l-5.476-14.289c-2.033 2.847-9.209 12.229-13.061 13.105.059 2.994-3.295 3.142-5.583 4.876.124.551.284 1.137-.373 1.285-1.927.438-2.756 2.58-4.036 2.853-.137-.563-.788-.415-1.434-.267-.51.717-1.772 1.001-2.146 2.303-1.932.432-2.5 2.338-3.615 3.664l-.741-.456c-2.31 2.119-5.676 1.9-7.271 4.516-3.727 1.746-6.903 2.349-10.768 3.793-.646.048-1.303.089-1.351-.52-.574 1.219-3.271.243-3.84 1.444-3.982.266-7.295-.124-11.189.74-.1-1.154-2.002.124-2.068-1.018-3.236 1.385-6.519-.444-9.819-.444-.658-.604-1.974-.604-2.638-1.752-3.289.58-5.274 0-7.259-1.764-1.979 0-3.307-1.775-5.274-2.344v-1.154c-.653-.598-.653-.598-1.334-1.166 0-1.758 1.979-1.758 3.301-2.343 1.328-1.747 4.889-1.344 6.199-3.102 0-.592 1.778-1.729 1.778-2.308.645-1.172 1.108-2.291 1.766-2.291 1.985-1.166.687-2.533 3.33-3.101 0-.598 2.074-2.03 1.393-2.628 2.643-1.746 2.589-2.758 3.259-6.274 1.304-1.728 3.259-3.652 3.259-6.008.652-.574-.153-3.119 1.174-3.711.646-4.078-1.043-6.268-1.043-10.351l-1.328-1.161c0-1.776-1.321-2.929-.651-4.681-1.974-1.77-1.488-2.327-3.473-4.073l-1.132-1.189h-1.327c-.658-1.178-2.638-1.746-2.638-2.942-2.637-.574-5.274-2.32-7.893-3.504l-.676.598-.669-.598c-.646.598-.646.598-1.328 1.184 0-1.782-1.967 0-2.62-1.184-1.333 0-2.654-.598-3.958.598-3.959-1.189-8.237.864-12.202-.87 0 1.166-2.637-.598-2.637 1.166-1.315.574-3.236.533-3.876 1.083h-1.991c-1.997 1.764-3.639 3.824-7.579 3.824-1.322 0 0 1.74-1.322 1.74h-1.316c-3.307 2.93-5.932 6.451-9.891 8.783 0 .592-1.333 1.155-.663 2.338 0 .604-.67.604-1.339.604 0 1.142-.64 1.734-1.31 2.326 0 .592 0 1.172.663 1.172 0 .592-1.007 2.071-1.659 2.071-.658 2.344-.658 4.706-2.643 5.854 0 4.682-1.375 6.931-1.683 12.074.462 2.717.688 6.848.688 9.281 2.062 1.243-.504 1.171.865 3.001.681 0 .32 1.048.32 1.669.681 1.219 2.88 2.095 2.169 3.332 0 .609 1.149 1.154 1.831 1.154.699 1.213-1.008 2.569.379 3.179 0 .603 2.193.13 1.493 1.343l1.192 2.64Zm42.994-38.099c-1.327.615 0 1.853-1.327 2.468l.669.609c-.509 5.025-3.656 11.856-10.667 16.703-.651 0-1.333 0-1.333-.616 0-1.254-1.357-3.095-.658-4.332 0-.609-.706-.609-1.351-.609 1.351-1.243-.901-2.48-.196-4.345-.705 0-.705-.604-.705-1.231 2.015-1.237.379-4.41 2.388-5.629l-.657-.633c.657-1.225 1.7-3.143 2.998-4.403v-1.232c2.679-2.468 6.163-3.563 9.506-4.758.669 0 1.327 0 1.327.58 2.009 2.504.676 4.948.006 7.428Z"/><path d="M495.044 373.964c.077.818.172 1.617.256 2.404 4.536 4.369 3.65 11.816 6.664 17.145-1.438 1.853-.422 4.162-1.04 5.885l1.772 1.397c-1.201 4.25 1.665 7.974 1.267 12.118-.744.905-.744.905-1.464 1.817.078.799.179 1.605.975 1.522l-.713.894.874.716-.725.912c.797-.125.892.687.969 1.527-1.439 1.776 1.213 3.919-1.034 5.814.897.71.963 1.521 1.04 2.344-2.241 1.906-.868 5.388-2.45 7.892l.833.763-.785.876-.85-.787c-.809.042-.779.864-.755 1.657.838 1.582 2.497 3.109.915 4.832l.832.746c-2.401 1.758-3.115 3.824-3.81 6.186-.744.811-.744.811-1.487 1.628.791.752.821 1.503.821 2.297-1.469 1.628-2.206 3.22-3.669 4.854 0 .77.815 2.303-.696 3.132l.791.752c-.755 1.605-1.433 3.955-2.146 5.571.755-.053.761.722.761 1.492-2.23 1.681-4.804 3.457-3.972 6.518-1.444 2.409-3.33 3.22-4.804 5.641.803 1.492-2.646 2.209-2.61 3.76.018 1.545-2.248.911-1.451 2.397l.773.752c-.755.066-.755.066-1.48.095-.761 1.592-.761 1.592-2.23 2.433.006.776.036 1.575-.737 1.604-1.338 1.013-2.01 2.215-3.46 3.849.772.751-2.42 2.356-1.689 2.403-.832.711-1.641 1.474-1.796 3.002-.743-.036-1.504-.054-1.581.692l.047 1.007c-.535.544-.672.533-1.783.787-5.892 6.707-14.508 9.342-20.43 16.008-1.599.728-3.163 1.415-4.738 2.125-1.606.681-1.064 3.026-2.474 2.167.078-.764-2.027.675-2.783.645-1.67 1.475-4.126.379-5.666.296.072-.757-.826-.591-1.516-1.391l-.832.728c-.666-.823-2.384-2.385-3.145-2.439-.672-.787.821-1.61.065-1.639l.85-.752c.066-.752-1.201-.942-1.95-.983-1.367-1.622 1.54-.397.928-2.019l-2.955-.231c-.702-1.533-2.152-1.569-2.771-3.161.137-1.51 3.454-1.48 3.591-3.055 1.51.095 1.064-.142 2.664-.864l-.565-1.101c1.611-.74 1.362-2.049 2.105-2.019-.036.775.588-.119 1.325-.071.762.041 1.505.071 1.606-.693.059-.781.125-1.557.963-2.297.743.065.743.065 1.511.095 3.281-2.96 1.183-.989 4.566-4.712.059-.77.059-.77.136-1.54.815-.734.952-2.273 2.557-2.983-.077.781-.178 1.545.618 1.592 2.385-1.444.946-2.291.345-3.848.827-.77.827-.77 1.659-1.468-.089.775 1.255.172.511.13-.071.776.791-1.8 1.546-1.764 1.861-2.866.505.515 3.282-4.796.577-.586 1.998-1.112 2.128-1.503-.16-.071 1.766-.752 1.083-1.563-.107-.616.184-.87-1.392-.154.904-1.516 3.544-3.789 3.681-5.346 2.194.894.446-2.593 1.956-2.528-.821.717-1.582-.763-1.558.012l2.509-.071c1.671-1.468-2.319-1.403-.832-3.06-.018-.764-.244-1.202-.987-1.161-.042-.775-.214-1.409.541-1.45l.773.74c.731-.818-.719-3.428.767-4.286-.012-.776-.012-1.563-.036-2.351 2.236-1.646 1.231-1.374 1.921-3.747l-.761-.729c.011.764 1.623-.722.868-.686-.024-.805-.024-.805-.024-1.581 1.493-.852 2.533-6.015 2.491-7.571.036 1.562-1.76-3.553-.237-2.842 2.187-3.256.695-7.554 1.04-11.515-1.588-.58 1.225-1.711.351-3.143-.744.071-1.499.171-1.594-.604.684-.864.684-.864 1.326-1.759-.065-.751-.143-1.527-.886-1.426-.071-.776-.131-1.569.607-1.64-.113-.775-.167-1.539-.922-1.45.666-.877.666-.877 1.35-1.747-.083-.769-.832-.681-1.576-.562.44-3.221-2.783-5.53-1.611-8.786-.731.077-.815-.68-.892-1.474 2.009-2.599-.737-5.724.518-8.235-1.564-.574-.964-2.232-1.142-3.789.678-.858-1.261-1.627-1.344-2.391-1.903-3.683-1.356-6.613-2.581-10.538-1.48 1.338-2.568-10.816-3.864-15.534-1.95-3.037-.66-6.465-1.813-9.603.802-.094 1.623-.19 1.551-.994-1.064-2.321 1.284-3.446 1.837-5.95 1.623-.201 3.134-1.22 4.935.195 1.529-.988.583-2.51.482-3.315 3.223-.385 5.655-.716 8.895-1.113.083.811.148 1.622.969 1.522 2.414-.314 3.401 1.184 5.815.893.089.823.155 1.629.98 1.54 1.594-.213 2.486.485 3.39 1.207.808-.106 1.623-.207 1.528-1l.891.675.732-.882c.88.71 1.67.61 2.485.485.898.722 1.142 3.132 2.693 2.149 3.877 6.062 8.521 11.213 11.583 17.375ZM139.637 388.442c-.266-1.312-2.143-1.688-2.9-1.706-.793-.012-2.244 1.628-2.983.34 0 0-1.279 2.093-2.836 3.203-1.047.757-2.651.638-2.651.638-.385 1.992-.598 2.213 1.142 6.877.787.149 1.604 4.61 2.468 4.82-.366-1.719 2.285 3.691 3.143 4.449l1.089.286c.545.143.279.65.036 1.121l2.415 1.718c.243.651.758.847.19 1.778 1.846.125 3.012 1.24 4.557 1.92.533.233.202.674-.1 1.139.503.209 1.012.442 1.343 0 1.332 0 .379 1.366.581 2.016l.828-.214c.19.667 1.219 1.121 1.219 1.121 1.611 2.463 9.454 5.469 11.407 7.706l.769-.376c.616 1.282 4.067 1.521 4.067 3.191l.722-.441c.367.608 5.552 1.598 6.991 2.374.722-.454-.308-1.223.479-1.611.859.728 2.652 2.38 3.481 3.149 0 0 2.243.168 3.841.543 2.013 2.147 6.145.823 8.607 1.926.325.639.841.776 1.361.895l.788-.394.314.621c1.526-.787 2.361-.03 3.379-.912l.314.631.757-.411c.309.632.309.632.604 1.288 2.143.472 4.085 1.48 6.387.299.296.632.853.757 1.368.87.763-.399.763-.399 1.556-.769 1.604.358 1.9.99 3.765.853l.29.62c2.315-1.157 3.919-.823 6.055-.334.468-1.014 1.61.382 2.072-.656l.302.644c1.782-1.312 4.529-.626 6.375-.703l.284.649c.787-.375.474.054.474.054 1.557-.727 5.333-.787 6.345-1.64 2.149.561 2.066.967 4.984.578.598.138 1.8.406 2.356.591 2.386-1.586 4.451-1.539 6.493-.364 2.356-.453 6.115-2.308 8.169-3.4.586.161 1.196.347 1.782.52.888-.329 1.468-.132 2.072-1.122 2.64-.912 4.546-1.837 6.925-3.447.272.674 1.764-.591 2.054.041.296-.465.296-.465.598-.96 1.166.364 2.054-1.115 3.226-.757.314-.471.314-.471.604-.96 1.787-.621 1.083-1.08 2.841-1.677 1.521-1.043 3.652-4.622 7.12-6.155-.082-1.151 2.203-1.777 2.712-2.785.248-.507.858-.376 1.45-.263l-.338-.632c.841-.388.598-2.058 1.397-1.318.225-.507 1.232-1.843.74-1.938 1.688-1.337 1.664-5.685 4.156-6.233.219-.537.219-.537.432-1.026.989-1.336.603-3.817 1.166-4.145.195-.496-.077-.86.444-.728.633-2.004 1.107-5.046 1.693-7.742-.504-.114-.267-.62-.054-1.133.498.113.717-.4.948-.901-.504-.125-.285-.656-.071-1.157l.722-.382c-1.019-.233.136-1.622-.882-1.854l.698-.412c-.864-2.451.385-4.938-.467-7.378l.656-.4c-1.177-1.389-.976-2.863.042-4.312-.361-.638-.178-1.151 0-1.682-1.373-.865.296-1.783-.556-2.553.497-1.539-1.214-3.065-.184-4.515-.674-1.276-.811-1.813-1.545-3.054.142-.548.29-1.079.444-1.61-.509-.107-1.036-.214-.911-.745.822-.961-.077-1.682.23-2.75-1.035-.197-.485-1.098-.84-1.712-.332-2.857-1.078-5.01-2.759-7.443.699-1.05-.739-5.207-.674-6.513l-1-.538c-.433-1.33-.906-2.015-1.901-2.713.047-.651.047-.651.083-1.301-.515-.035-1.03-.059-.983-.721.03-.632.03-.632.066-1.301l-.575.621c-.958-.698-1.385-2.004-1.313-3.34-1.906-2.702-2.629-4.646-5.34-8.577-1.066.65-.047-2.034-1.326-1.426-1.462-3.334-2.42-4.145-4.581-6.191.083-.644.083-.644.124-1.312-.598-.018-.598-.018-1.184-.047-.603 0-.527-.668-.461-1.318-3.398-2.1-15.444-3.794-17.29-7.134-1.054-.059-2.072-.739-2.694.579-.473-.692-.473-.692-.947-1.366-2.817 1.872-5.179-1.485-7.784-2.219l-.568.62c-.912-1.986-2.652-.072-3.723-.084-.45-.685-.995-.721-1.516-.733-2.764 1.229-5.303-.161-7.677 3.066l-.485-.68 6.002 11.284c-.136.615 1.545 7.641 3.143 11.166.545.101 1.237 1.372 1.616 2.105-.142.609-.142.609-.266 1.247.805 1.461 1.604 2.91 2.397 4.396-.545-.126-.681.483-.817 1.121.639 2.075.622 4.324 1.243 6.34.847.752-.136 1.205.787 2.153.089.096-.562 1.318-.432 1.378-.373 1.026.267 2.248.267 2.248.307 2.249.189.466 1.746 2.076-1.439 1.73.976 4.557-.462 6.269.775.811.8-.334 1.054.304-.261.459-.261.459-.509.925-.243.47.243.644.746.847.497 1.264-.409 2.015.254 3.238.503.126.041 1.682.545 1.796.159 1.151 1.592 1.491.218 2.29-.497-.131-.218 2.159-.739 3.692.326.608.005 3.233-.16 3.757.515.119.864-.507.681 0l-.355 1.009c.514.113.462 1.049.266 1.55-.024 1.629-1.06 2.463-1.581 3.966-.592 3.293 1.113 5.965-1.106 7.14.799.721-.184 1.598-.409 2.123-.734.346-.538 1.945-1.208 2.344-.828 2.016-1.225 1.897-2.047 3.907-1.344.787-1.569 1.658-2.901 2.445-.213.496-.213.496-.42.99-.195.507-.663.382-1.119.293-.87.906-3.931 2.32-4.356 3.286l.26.626c-1.817.674-2.344.901-4.362 2.076-1.995 1.199-3.481 1.211-5.559 2.284-1.823-.513-3.373.841-5.191.323-.704.375-1.391.757-2.095 1.079-.918-.25-2.279.471-2.972-.268-.905-.233-.716 1.455-1.61 1.223-.45-.138-.45-.138-.905-.269l-.214-.614c-1.397.733-2.515-.144-3.906.566l-.219-.59c-1.386.709-2.54-.084-3.421.829-1.167-.805-3.7-.829-5.748-.675.183-.512-.267-.602-.74-.673l-.669.429c.207-.519-3.913-.226-4.368-.28l-.942-.179-.284-.608-.651.417c-.746-.662-5.67-1.163-6.843-2.457-.94.894-1.835.501-2.9.28-4.398-.28-9.761-2.237-10.305-2.356l-.32-.65c-1.527.781-4.066-.048-4.729-1.288-.545-.126-1.279-.191-1.812-.358-.568-1.312-4.042-1.062-4.474-2.368 0 0-1.741-1.217-2.481-2.112-1.136.704-3.984-2.731-4.516-2.958l-1.906-.071-.681-2.07-2.569-1.938c-1.054-1.945-2.101-.418-2.439-2.064Z"/><path d="M180.048 313.904c.726.019 1.445.06 2.123.109 3.42 3.545 10.163 2.515 14.617 4.788 1.785-1.303 3.723-.525 5.346-1.128.542.711.542.711 1.077 1.423 3.919-1.182 6.024.808 9.752.537.922-.585.922-.585 1.838-1.194.696.09 1.386.199 1.19.838l.909-.591.5.742.909-.573c-.219.657.488.759 1.19.802 1.808-1.14 2.92.41 5.001-1.338.464.777 1.16.88 1.861.994 2.076-1.76 2.813.084 5.353-.754l.44.79.921-.506-.41-.808c.244-.651.927-.482 1.612-.338 1.123.965 1.891 2.4 3.824 1.502l.386.802c1.201-.857-8.07-1.279 6.393-1.743.927-.416.927-.416 1.849-.844.363.778.999.965 1.653 1.139 1.844-.844 3.396-1.085 5.251-1.917.648.157 1.653 1.127 2.855.121l.362.747c1.582-.205 3.783-.295 5.328-.506-.249.591-1.04-.838-.428-.555 2.23-1.14 4.633-2.484 6.72-.808 2.468-.272 3.55-1.532 6.036-1.719.815 1.188 2.807-1.145 3.991-.494 1.165.597 1.206-1.068 1.98.138l.208.857c.369-.501.369-.501.743-1.055 1.522.12 1.522.12 2.813-.609.577.337 1.154.693 1.528.15 1.362-.554 2.569-.554 4.424-.958.214.898 1.547-.417 1.202.126.915-.229 1.873-.404 3.015.271.356-.536.737-1.079 1.314-.735l.678.518c.654-.102.714-.211 1.475-.82 7.718-.699 12.018-4.516 19.684-4.516 1.343-.627 2.705-1.23 4.037-1.851 1.333-.622 2.551 1.049 2.807-.356-.541-.386 1.576-.928 1.981-1.423 1.878-.205 3.044-3.515 3.811-4.577-.559-.38.03-.868-.13-1.785l.921-.15c-.184-.893-.356-4.649.012-5.186-.167-.881-1.505-.314-1.142-.856l-.333-.628c-.547-.379.167-1.332.542-1.839-.363-1.815-1.981.23-2.742-1.055l1.409-2.111c-.648-1.284-3.497-2.037-4.597-2.797-.761 1.079-.701.645-2.021 1.326l-.447-1.001c-1.331.718-2.105-.145-2.479.368.547.356-.369.313-.738.826-.398.537-.761 1.073-1.32.681-.559-.361-1.118-.729-2.046-.572-.38.555-.38.555-.749 1.049-3.728.639-12.149.85-12.993-.314-.934.224-.934.224-1.856.465.601.313-.487 1.013-.13.446.594.326-1.695-.314-2.04.259-2.98-.03-9.539.651-8.254-.127-1.511-.072-4.454.736-5.626.115-.44 1.966-2.539-1.109-3.175 0 .927-.247-1.172-.38-.565-.096l.071.778c-1.867.578-1.98-1.188-3.835-.513-.631-.265-.899-.585-.595-1.134-.625-.235-1.053-.609-1.35-.012l.297.802c-.928.35-2.492-1.561-3.717-.681-.63-.247-1.225-.501-1.861-.748-2.135 1.224-4.436 1.164-6.654 1.345l-.422-.754c.642.139-1.077 1.188-.827.579-.66-.151-.66-.151-1.321-.283-1.129 1.085-5.815 1.049-7.124.735 1.314.314-2.646-2.303-2.402-.947-3.318 1.303-7.113-.65-10.632-.681-.215-1.375-1.696.893-2.814.048.221-.626.435-1.247-.214-1.374-.88.5-1.528.289-2.402.82-.654-.072-1.35-.163-1.13-.79-.678-.079-1.362-.157-1.552.434-.666-.084-1.344-.175-1.148-.778-.856.506-1.742 1.188-2.586 1.737-.667-.042-.5-.675-.334-1.303-2.89.41-4.531-2.231-7.582-1.224.161-.597-.487-.657-1.195-.723-2.533 1.706-6.131-.145-8.48 1.061-.398-1.266-1.915-.652-3.276-.664-.827.604-1.363-.946-2.028-.958-3.141-1.327-5.805-.67-9.194-1.423 1.302-1.321-9.432-1.375-13.547-2.123-2.569-1.405-5.727-.09-8.42-.826-.155.669-.303 1.363-1.017 1.351-1.987-.718-3.17 1.302-5.447 1.954-.304 1.35-1.76 1.995-1.362 3.159-1.005 1.345-1.136 1.574-1.85 1.556-.6 2.713-1.058 2.43-1.748 5.119.714.072 1.427.084 1.249.754-.535 2.002.713 2.78.178 4.794.708.042 1.446.078 1.243.748-.333 1.356.196 2.05.738 2.767-.185.669-.358 1.345-1.065 1.315l.523.705-.88.628c.548.717.375 1.38.19 2.05.535.699 2.659.826 1.624 2.134 4.971 2.979 9.087 6.591 14.248 8.87Z"/></g></svg>