<svg xmlns="http://www.w3.org/2000/svg" width="674" height="750" overflow="hidden"><defs><clipPath id="a"><path d="M41 3h674v750H41z"/></clipPath></defs><g fill-rule="evenodd" clip-path="url(#a)" transform="translate(-41 -3)"><path fill="#64A70B" d="M715 3C539.521 175.774 326.61 212.701 326.61 212.701 326.61 340.58 304.675 435.077 273 505 606.604 335.06 715 3 715 3Z"/><path fill="#C8102E" d="M520.603 418.206c-87.4 95.075-208.959 188.429-373.833 241.859h-.01C90.53 697.432 41 700.342 41 700.342L97.543 753C367.19 706.916 519.32 541.746 605 378c-28.243 14.647-56.677 28.065-84.397 40.206Z"/><path fill="#1B365D" d="M605.563 377.931C641.427 309.784 665.646 241.932 682 183c-29.665 60.498-81.069 148.466-161 235 27.775-12.101 56.265-25.475 84.563-40.069Z"/><path fill="#0089D1" d="M681.982 182.97C710.725 79.003 715 3 715 3S606.604 335.061 273 505c.057-.01 115.756-29.054 247.976-86.695 79.934-86.657 131.34-174.75 161.006-235.335Z"/><path fill="#F2A900" d="M521 418c-132.016 57.784-247.532 86.899-247.584 86.909C237.859 583.834 189.929 631.423 147 660h.01C311.953 606.54 433.563 513.13 521 418Z"/></g></svg>