<svg xmlns="http://www.w3.org/2000/svg" width="750" height="758" overflow="hidden"><defs><clipPath id="a"><path d="M3-1h750v758H3z"/></clipPath></defs><g fill-rule="evenodd" clip-path="url(#a)" transform="translate(-3 1)"><path fill="#DB6B30" d="M474 190.044C474 136.518 430.581 93 376.967 93 323.485 93 280 136.518 280 190.044 280 243.526 323.485 287 376.967 287c53.614-.011 97.033-43.485 97.033-96.956Z"/><path fill="#005EB8" d="M574.349 566.515s-90.91 8.197-205.31-67.849c-67.233-44.693-89.771-58.096-103.798-65.866-19.672-10.872-47.758-21.272-79.979-19.628C136.585 415.638 97 452.724 97 501.537c0 48.823 39.508 88.397 88.262 88.397 43.184 0 79.071-31.146 86.631-72.2l.668-2.509c.295-1.304 1.794-5.184 5.974-5.009 4.376.198 10.252 6.576 25.635 18.434l15.295 12.351C444.15 645.158 544.622 657.499 564.502 660.096c10.679 1.37 97.934 13.545 187.498-24.856V483.114c-25.865 36.352-102.234 80.452-177.651 83.401Z"/><path fill="#008755" d="M661.616 307.815a5.667 5.667 0 0 0-4.666-4.448c-1.818-.088-3.614-.197-5.509-.219-48.835-.654-99.971-.763-137.274 36.382-25.584 25.467-39.668 57.989-42.461 91.295v.087a5.583 5.583 0 0 0 3.319 5.113v.022c12.945 5.68 30.37 10.63 48.649 7.774 21.017-3.282 43.578-15.373 58.988-37.94.799-.96 3.57-3.642 7.305-2.006 2.869 1.297 3.68 4.023 3.045 7.108-.734 2.257-1.895 4.492-3.023 6.149-18.454 27.212-37.084 41.036-63.566 45.146a95.086 95.086 0 0 1-13.8 1.025c-22.397 0-42.187-8.068-55.122-15.034-28.388-12.374-76.851-49.725-76.851-49.725-89.446-71.966-165.377-84.515-167.862-84.951-86.172-16.866-153.91.6-209.788 34.767v54.991c50.85-43.598 117.286-69.066 204.662-54.882 0 0 70.269 7.937 155.629 72.021 74.058 57.237 117.79 66.973 117.79 66.973 49.646 13.965 103.497 1.515 142.575-37.352C660.915 413 662.569 361.214 661.9 313.538c-.032-1.962-.175-3.837-.284-5.723Z"/><path fill="#FFCD00" d="M185.192 413.657c32.214-1.641 60.315 8.743 79.989 19.598 14.028 7.759 36.581 21.142 103.811 65.766 114.415 75.932 205.335 67.747 205.335 67.747 75.427-2.955 151.805-46.977 177.673-83.264V0H3.01v348.383c55.84-34.305 123.508-51.835 209.604-34.896 2.494.449 78.347 13.033 167.715 85.266 0 0 48.42 37.49 76.783 49.91 12.934 6.992 32.696 15.09 55.073 15.09 4.519 0 9.093-.34 13.788-1.029 26.459-4.125 45.072-18.001 63.51-45.314 1.138-1.663 2.287-3.906 3.02-6.172.635-3.096-.186-5.832-3.042-7.134-3.731-1.642-6.5 1.05-7.299 2.013-15.396 22.652-37.937 34.798-58.936 38.081-18.263 2.867-35.683-2.09-48.606-7.802v-.022a5.606 5.606 0 0 1-3.316-5.132v-.088c2.791-33.43 16.863-66.072 42.424-91.634 37.27-37.282 88.361-37.173 137.153-36.516 1.893.022 3.687.131 5.504.219a5.676 5.676 0 0 1 4.662 4.465c.109 1.893.251 3.775.273 5.755.668 47.853-.985 99.831-38.211 137.08-39.032 39-92.836 51.507-142.449 37.49 0 0-43.693-9.772-117.686-67.222-85.285-64.321-155.493-72.287-155.493-72.287C120.183 334.256 53.806 359.83 3 403.59V756h748.989V635.4c-89.575 38.344-176.841 26.186-187.521 24.818-19.882-2.593-120.367-14.915-245.067-118.914l-15.297-12.333c-15.385-11.84-21.251-18.208-25.639-18.405-4.18-.175-5.679 3.698-5.974 5l-.668 2.506c-7.561 40.992-43.452 72.091-86.642 72.091-48.76 0-88.273-39.514-88.273-88.264 0-48.75 39.59-85.78 88.284-88.242Zm191.471-126.246c-53.563 0-97.114-43.541-97.114-97.106 0-53.609 43.551-97.194 97.114-97.194 53.695 0 97.18 43.585 97.18 97.194 0 53.565-43.485 97.106-97.18 97.106Z"/></g></svg>