<svg xmlns="http://www.w3.org/2000/svg" width="740" height="406" overflow="hidden"><defs><linearGradient id="d" x1="606.733" x2="542.791" y1="1186.62" y2="1340.2" gradientUnits="userSpaceOnUse" spreadMethod="pad"><stop offset="0" stop-color="#44C8F5"/><stop offset="0.0288" stop-color="#36C4F3"/><stop offset="0.2534" stop-color="#00AFEA"/><stop offset="0.423" stop-color="#00A4E5"/><stop offset="0.5169" stop-color="#00A1E4"/><stop offset="1" stop-color="#0066B3"/></linearGradient><linearGradient id="e" x1="611.005" x2="547.062" y1="1188.39" y2="1341.98" gradientUnits="userSpaceOnUse" spreadMethod="pad"><stop offset="0" stop-color="#44C8F5"/><stop offset="0.0288" stop-color="#36C4F3"/><stop offset="0.2534" stop-color="#00AFEA"/><stop offset="0.423" stop-color="#00A4E5"/><stop offset="0.5169" stop-color="#00A1E4"/><stop offset="1" stop-color="#0066B3"/></linearGradient><linearGradient id="f" x1="404.714" x2="479.816" y1="1217.21" y2="1355.96" gradientUnits="userSpaceOnUse" spreadMethod="pad"><stop offset="0" stop-color="#44C8F5"/><stop offset="0.0288" stop-color="#36C4F3"/><stop offset="0.2534" stop-color="#00AFEA"/><stop offset="0.423" stop-color="#00A4E5"/><stop offset="0.5169" stop-color="#00A1E4"/><stop offset="1" stop-color="#0066B3"/></linearGradient><linearGradient id="g" x1="406.185" x2="481.289" y1="1216.41" y2="1355.16" gradientUnits="userSpaceOnUse" spreadMethod="pad"><stop offset="0" stop-color="#44C8F5"/><stop offset="0.0288" stop-color="#36C4F3"/><stop offset="0.2534" stop-color="#00AFEA"/><stop offset="0.423" stop-color="#00A4E5"/><stop offset="0.5169" stop-color="#00A1E4"/><stop offset="1" stop-color="#0066B3"/></linearGradient><linearGradient id="h" x1="270.853" x2="424.678" y1="1308.32" y2="1401.46" gradientUnits="userSpaceOnUse" spreadMethod="pad"><stop offset="0" stop-color="#44C8F5"/><stop offset="0.0288" stop-color="#36C4F3"/><stop offset="0.2534" stop-color="#00AFEA"/><stop offset="0.423" stop-color="#00A4E5"/><stop offset="0.5169" stop-color="#00A1E4"/><stop offset="1" stop-color="#0066B3"/></linearGradient><linearGradient id="i" x1="268.957" x2="422.786" y1="1311.45" y2="1404.59" gradientUnits="userSpaceOnUse" spreadMethod="pad"><stop offset="0" stop-color="#44C8F5"/><stop offset="0.0288" stop-color="#36C4F3"/><stop offset="0.2534" stop-color="#00AFEA"/><stop offset="0.423" stop-color="#00A4E5"/><stop offset="0.5169" stop-color="#00A1E4"/><stop offset="1" stop-color="#0066B3"/></linearGradient><linearGradient id="j" x1="673.506" x2="556.99" y1="1274.9" y2="1361.43" gradientUnits="userSpaceOnUse" spreadMethod="pad"><stop offset="0" stop-color="#44C8F5"/><stop offset="0.0288" stop-color="#36C4F3"/><stop offset="0.2534" stop-color="#00AFEA"/><stop offset="0.423" stop-color="#00A4E5"/><stop offset="0.5169" stop-color="#00A1E4"/><stop offset="1" stop-color="#0066B3"/></linearGradient><linearGradient id="k" x1="118.044" x2="316.399" y1="1383.84" y2="1430.84" gradientUnits="userSpaceOnUse" spreadMethod="pad"><stop offset="0" stop-color="#44C8F5"/><stop offset="0.0288" stop-color="#36C4F3"/><stop offset="0.2534" stop-color="#00AFEA"/><stop offset="0.423" stop-color="#00A4E5"/><stop offset="0.5169" stop-color="#00A1E4"/><stop offset="1" stop-color="#0066B3"/></linearGradient><linearGradient id="l" x1="117.815" x2="316.166" y1="1384.82" y2="1431.81" gradientUnits="userSpaceOnUse" spreadMethod="pad"><stop offset="0" stop-color="#44C8F5"/><stop offset="0.0288" stop-color="#36C4F3"/><stop offset="0.2534" stop-color="#00AFEA"/><stop offset="0.423" stop-color="#00A4E5"/><stop offset="0.5169" stop-color="#00A1E4"/><stop offset="1" stop-color="#0066B3"/></linearGradient><linearGradient id="m" x1="218.106" x2="391.592" y1="1338.66" y2="1412.8" gradientUnits="userSpaceOnUse" spreadMethod="pad"><stop offset="0" stop-color="#44C8F5"/><stop offset="0.0288" stop-color="#36C4F3"/><stop offset="0.2534" stop-color="#00AFEA"/><stop offset="0.423" stop-color="#00A4E5"/><stop offset="0.5169" stop-color="#00A1E4"/><stop offset="1" stop-color="#0066B3"/></linearGradient><linearGradient id="n" x1="218.458" x2="391.937" y1="1337.86" y2="1411.99" gradientUnits="userSpaceOnUse" spreadMethod="pad"><stop offset="0" stop-color="#44C8F5"/><stop offset="0.0288" stop-color="#36C4F3"/><stop offset="0.2534" stop-color="#00AFEA"/><stop offset="0.423" stop-color="#00A4E5"/><stop offset="0.5169" stop-color="#00A1E4"/><stop offset="1" stop-color="#0066B3"/></linearGradient><linearGradient id="o" x1="169.708" x2="356.681" y1="1361.32" y2="1426.54" gradientUnits="userSpaceOnUse" spreadMethod="pad"><stop offset="0" stop-color="#44C8F5"/><stop offset="0.0288" stop-color="#36C4F3"/><stop offset="0.2534" stop-color="#00AFEA"/><stop offset="0.423" stop-color="#00A4E5"/><stop offset="0.5169" stop-color="#00A1E4"/><stop offset="1" stop-color="#0066B3"/></linearGradient><linearGradient id="p" x1="170.712" x2="357.696" y1="1358.42" y2="1423.64" gradientUnits="userSpaceOnUse" spreadMethod="pad"><stop offset="0" stop-color="#44C8F5"/><stop offset="0.0288" stop-color="#36C4F3"/><stop offset="0.2534" stop-color="#00AFEA"/><stop offset="0.423" stop-color="#00A4E5"/><stop offset="0.5169" stop-color="#00A1E4"/><stop offset="1" stop-color="#0066B3"/></linearGradient><linearGradient id="q" x1="748.557" x2="596.23" y1="1376.17" y2="1405.28" gradientUnits="userSpaceOnUse" spreadMethod="pad"><stop offset="0" stop-color="#44C8F5"/><stop offset="0.0288" stop-color="#36C4F3"/><stop offset="0.2534" stop-color="#00AFEA"/><stop offset="0.423" stop-color="#00A4E5"/><stop offset="0.5169" stop-color="#00A1E4"/><stop offset="1" stop-color="#0066B3"/></linearGradient><linearGradient id="r" x1="709.548" x2="577.731" y1="1340.25" y2="1381.6" gradientUnits="userSpaceOnUse" spreadMethod="pad"><stop offset="0" stop-color="#44C8F5"/><stop offset="0.0288" stop-color="#36C4F3"/><stop offset="0.2534" stop-color="#00AFEA"/><stop offset="0.423" stop-color="#00A4E5"/><stop offset="0.5169" stop-color="#00A1E4"/><stop offset="1" stop-color="#0066B3"/></linearGradient><linearGradient id="s" x1="769.171" x2="623.528" y1="1409.55" y2="1413.36" gradientUnits="userSpaceOnUse" spreadMethod="pad"><stop offset="0" stop-color="#44C8F5"/><stop offset="0.0288" stop-color="#36C4F3"/><stop offset="0.2534" stop-color="#00AFEA"/><stop offset="0.423" stop-color="#00A4E5"/><stop offset="0.5169" stop-color="#00A1E4"/><stop offset="1" stop-color="#0066B3"/></linearGradient><linearGradient id="t" x1="331.889" x2="448.066" y1="1275.73" y2="1377.48" gradientUnits="userSpaceOnUse" spreadMethod="pad"><stop offset="0" stop-color="#44C8F5"/><stop offset="0.0288" stop-color="#36C4F3"/><stop offset="0.2534" stop-color="#00AFEA"/><stop offset="0.423" stop-color="#00A4E5"/><stop offset="0.5169" stop-color="#00A1E4"/><stop offset="1" stop-color="#0066B3"/></linearGradient><linearGradient id="u" x1="504.522" x2="513.486" y1="1086.39" y2="1346.4" gradientUnits="userSpaceOnUse" spreadMethod="pad"><stop offset="0" stop-color="#44C8F5"/><stop offset="0.0288" stop-color="#36C4F3"/><stop offset="0.2534" stop-color="#00AFEA"/><stop offset="0.423" stop-color="#00A4E5"/><stop offset="0.5169" stop-color="#00A1E4"/><stop offset="1" stop-color="#0066B3"/></linearGradient><linearGradient id="v" x1="834.799" x2="758.651" y1="239.219" y2="422.105" gradientUnits="userSpaceOnUse" spreadMethod="pad"><stop offset="0" stop-color="#44C8F5"/><stop offset="0.0288" stop-color="#36C4F3"/><stop offset="0.2534" stop-color="#00AFEA"/><stop offset="0.423" stop-color="#00A4E5"/><stop offset="0.5169" stop-color="#00A1E4"/><stop offset="1" stop-color="#0066B3"/></linearGradient><linearGradient id="w" x1="839.884" x2="763.736" y1="241.329" y2="424.234" gradientUnits="userSpaceOnUse" spreadMethod="pad"><stop offset="0" stop-color="#44C8F5"/><stop offset="0.0288" stop-color="#36C4F3"/><stop offset="0.2534" stop-color="#00AFEA"/><stop offset="0.423" stop-color="#00A4E5"/><stop offset="0.5169" stop-color="#00A1E4"/><stop offset="1" stop-color="#0066B3"/></linearGradient><linearGradient id="x" x1="596.392" x2="685.85" y1="279.093" y2="444.353" gradientUnits="userSpaceOnUse" spreadMethod="pad"><stop offset="0" stop-color="#44C8F5"/><stop offset="0.0288" stop-color="#36C4F3"/><stop offset="0.2534" stop-color="#00AFEA"/><stop offset="0.423" stop-color="#00A4E5"/><stop offset="0.5169" stop-color="#00A1E4"/><stop offset="1" stop-color="#0066B3"/></linearGradient><linearGradient id="y" x1="598.143" x2="687.6" y1="278.149" y2="443.41" gradientUnits="userSpaceOnUse" spreadMethod="pad"><stop offset="0" stop-color="#44C8F5"/><stop offset="0.0288" stop-color="#36C4F3"/><stop offset="0.2534" stop-color="#00AFEA"/><stop offset="0.423" stop-color="#00A4E5"/><stop offset="0.5169" stop-color="#00A1E4"/><stop offset="1" stop-color="#0066B3"/></linearGradient><linearGradient id="z" x1="431.667" x2="614.82" y1="381.825" y2="492.727" gradientUnits="userSpaceOnUse" spreadMethod="pad"><stop offset="0" stop-color="#44C8F5"/><stop offset="0.0288" stop-color="#36C4F3"/><stop offset="0.2534" stop-color="#00AFEA"/><stop offset="0.423" stop-color="#00A4E5"/><stop offset="0.5169" stop-color="#00A1E4"/><stop offset="1" stop-color="#0066B3"/></linearGradient><linearGradient id="A" x1="429.402" x2="612.567" y1="385.55" y2="496.46" gradientUnits="userSpaceOnUse" spreadMethod="pad"><stop offset="0" stop-color="#44C8F5"/><stop offset="0.0288" stop-color="#36C4F3"/><stop offset="0.2534" stop-color="#00AFEA"/><stop offset="0.423" stop-color="#00A4E5"/><stop offset="0.5169" stop-color="#00A1E4"/><stop offset="1" stop-color="#0066B3"/></linearGradient><linearGradient id="B" x1="915.554" x2="776.804" y1="343.184" y2="446.248" gradientUnits="userSpaceOnUse" spreadMethod="pad"><stop offset="0" stop-color="#44C8F5"/><stop offset="0.0288" stop-color="#36C4F3"/><stop offset="0.2534" stop-color="#00AFEA"/><stop offset="0.423" stop-color="#00A4E5"/><stop offset="0.5169" stop-color="#00A1E4"/><stop offset="1" stop-color="#0066B3"/></linearGradient><linearGradient id="C" x1="256.734" x2="492.991" y1="474.634" y2="530.602" gradientUnits="userSpaceOnUse" spreadMethod="pad"><stop offset="0" stop-color="#44C8F5"/><stop offset="0.0288" stop-color="#36C4F3"/><stop offset="0.2534" stop-color="#00AFEA"/><stop offset="0.423" stop-color="#00A4E5"/><stop offset="0.5169" stop-color="#00A1E4"/><stop offset="1" stop-color="#0066B3"/></linearGradient><linearGradient id="D" x1="256.459" x2="492.716" y1="475.808" y2="531.775" gradientUnits="userSpaceOnUse" spreadMethod="pad"><stop offset="0" stop-color="#44C8F5"/><stop offset="0.0288" stop-color="#36C4F3"/><stop offset="0.2534" stop-color="#00AFEA"/><stop offset="0.423" stop-color="#00A4E5"/><stop offset="0.5169" stop-color="#00A1E4"/><stop offset="1" stop-color="#0066B3"/></linearGradient><linearGradient id="E" x1="368.713" x2="575.284" y1="418.462" y2="506.74" gradientUnits="userSpaceOnUse" spreadMethod="pad"><stop offset="0" stop-color="#44C8F5"/><stop offset="0.0288" stop-color="#36C4F3"/><stop offset="0.2534" stop-color="#00AFEA"/><stop offset="0.423" stop-color="#00A4E5"/><stop offset="0.5169" stop-color="#00A1E4"/><stop offset="1" stop-color="#0066B3"/></linearGradient><linearGradient id="F" x1="369.125" x2="575.691" y1="417.506" y2="505.783" gradientUnits="userSpaceOnUse" spreadMethod="pad"><stop offset="0" stop-color="#44C8F5"/><stop offset="0.0288" stop-color="#36C4F3"/><stop offset="0.2534" stop-color="#00AFEA"/><stop offset="0.423" stop-color="#00A4E5"/><stop offset="0.5169" stop-color="#00A1E4"/><stop offset="1" stop-color="#0066B3"/></linearGradient><linearGradient id="G" x1="311.409" x2="534.046" y1="445.842" y2="523.495" gradientUnits="userSpaceOnUse" spreadMethod="pad"><stop offset="0" stop-color="#44C8F5"/><stop offset="0.0288" stop-color="#36C4F3"/><stop offset="0.2534" stop-color="#00AFEA"/><stop offset="0.423" stop-color="#00A4E5"/><stop offset="0.5169" stop-color="#00A1E4"/><stop offset="1" stop-color="#0066B3"/></linearGradient><linearGradient id="H" x1="312.617" x2="535.254" y1="442.4" y2="520.053" gradientUnits="userSpaceOnUse" spreadMethod="pad"><stop offset="0" stop-color="#44C8F5"/><stop offset="0.0288" stop-color="#36C4F3"/><stop offset="0.2534" stop-color="#00AFEA"/><stop offset="0.423" stop-color="#00A4E5"/><stop offset="0.5169" stop-color="#00A1E4"/><stop offset="1" stop-color="#0066B3"/></linearGradient><linearGradient id="I" x1="1004.45" x2="823.051" y1="464.511" y2="499.179" gradientUnits="userSpaceOnUse" spreadMethod="pad"><stop offset="0" stop-color="#44C8F5"/><stop offset="0.0288" stop-color="#36C4F3"/><stop offset="0.2534" stop-color="#00AFEA"/><stop offset="0.423" stop-color="#00A4E5"/><stop offset="0.5169" stop-color="#00A1E4"/><stop offset="1" stop-color="#0066B3"/></linearGradient><linearGradient id="J" x1="957.886" x2="800.905" y1="421.692" y2="470.941" gradientUnits="userSpaceOnUse" spreadMethod="pad"><stop offset="0" stop-color="#44C8F5"/><stop offset="0.0288" stop-color="#36C4F3"/><stop offset="0.2534" stop-color="#00AFEA"/><stop offset="0.423" stop-color="#00A4E5"/><stop offset="0.5169" stop-color="#00A1E4"/><stop offset="1" stop-color="#0066B3"/></linearGradient><linearGradient id="K" x1="1029.14" x2="855.704" y1="504.381" y2="508.906" gradientUnits="userSpaceOnUse" spreadMethod="pad"><stop offset="0" stop-color="#44C8F5"/><stop offset="0.0288" stop-color="#36C4F3"/><stop offset="0.2534" stop-color="#00AFEA"/><stop offset="0.423" stop-color="#00A4E5"/><stop offset="0.5169" stop-color="#00A1E4"/><stop offset="1" stop-color="#0066B3"/></linearGradient><linearGradient id="L" x1="511.016" x2="649.396" y1="347.993" y2="469.172" gradientUnits="userSpaceOnUse" spreadMethod="pad"><stop offset="0" stop-color="#44C8F5"/><stop offset="0.0288" stop-color="#36C4F3"/><stop offset="0.2534" stop-color="#00AFEA"/><stop offset="0.423" stop-color="#00A4E5"/><stop offset="0.5169" stop-color="#00A1E4"/><stop offset="1" stop-color="#0066B3"/></linearGradient><linearGradient id="M" x1="713.263" x2="723.939" y1="121.501" y2="431.124" gradientUnits="userSpaceOnUse" spreadMethod="pad"><stop offset="0" stop-color="#44C8F5"/><stop offset="0.0288" stop-color="#36C4F3"/><stop offset="0.2534" stop-color="#00AFEA"/><stop offset="0.423" stop-color="#00A4E5"/><stop offset="0.5169" stop-color="#00A1E4"/><stop offset="1" stop-color="#0066B3"/></linearGradient><clipPath id="a"><path d="M17 122h740v406H17z"/></clipPath><clipPath id="b"><path d="M18 123h738v404H18z"/></clipPath><clipPath id="c"><path d="M18 123h738v404H18z"/></clipPath></defs><g clip-path="url(#a)" transform="translate(-17 -122)"><g clip-path="url(#b)"><g clip-path="url(#c)"><path fill="#4C5C65" d="M183.058 1529.491c.36-.34 44.6-43.73 44.6-43.73s44.252 43.39 44.611 43.73h32.019l-44.13-45.13h36.224v-21.4H158.936v21.4h36.228s-42.175 43.13-44.129 45.13h32.023ZM-15.897 1462.961l-40.216 104.38h22.977l26.787-69.36 26.785 69.36h22.98l-40.22-104.38ZM96.116 1567.341h22.97v-104.38h-22.97v104.38ZM55.81 1494.211a13.988 13.988 0 0 0-10.793-5.07c-7.722 0-13.992 6.24-13.992 13.92s6.27 13.93 13.992 13.93c4.336 0 8.218-1.98 10.792-5.06v55.41h22.945v-104.38H55.809v31.25Z"/><path fill="#4C5C65" d="M309.056 1540.831h-70.97c3.135-2.84 5.138-6.88 5.138-11.43 0-8.55-6.967-15.49-15.567-15.49-8.591 0-15.555 6.94-15.555 15.49 0 4.55 2.004 8.59 5.133 11.43h-70.957v21.42h48.358c-8.096 8.27-13.098 19.55-13.098 32.01 0 25.36 20.65 45.91 46.12 45.91s46.138-20.55 46.138-45.91c0-12.46-5.01-23.74-13.106-32.01h48.366v-21.42Zm-81.399 76.46c-12.772 0-23.129-10.32-23.129-23.03s10.357-23.02 23.13-23.02c12.786 0 23.143 10.31 23.143 23.02 0 12.72-10.36 23.03-23.144 23.03ZM467.42 1520.831v9.56h54.098v7.52H467.42v29.08h68.369v-9.55h-54.086v-9.97h54.086v-26.64h-68.37ZM521.52 1462.981v9.12h-17.728v-9.12h-14.275v11.73h-22.32v-11.73h-14.262v47.52h50.86v-8.82h17.728v12.57h14.269v-51.27H521.52Zm-54.326 37.41v-16.12h22.321v16.68h-22.32v-.56Zm36.596-8.82v-9.9h17.728v10.46H503.79v-.56ZM349.267 1528.371v9.55h61.076v29.73h14.27v-39.27c-.534-.01-74.79-.01-75.346-.01ZM349.267 1462.981v42.63h75.348v-8.84h-61.071v-8.06h59.095v-8.83h-59.095v-8.06h61.07v-8.84h-75.347ZM858.206 1462.981v104.01h14.263v-104.01h-14.263ZM632.531 1462.981v104.01h14.254v-62.09h14.735v-9.55h-14.735v-32.37h-14.254ZM594.548 1481.811v-6.91h22.239v-9.56h-59.315v9.56h22.243v6.91c-.036 20.92-8.292 35.19-23.908 41.07v11.28c.215-.05 22.085-4.63 30.414-21.11l.91-1.8.912 1.8c8.332 16.48 30.197 21.06 30.418 21.11v-11.28c-15.626-5.88-23.875-20.15-23.913-41.07ZM748.27 1462.981v104.01h14.272v-104.01H748.27ZM710.264 1460.961h.036v8.63H734.258v9.54h-23.733v2.96c0 24.74 10.221 36.08 26.228 42.12v11.61l-.06-.01c-.216-.04-23.7-4.96-32.898-21.64l-.92-1.81-.916 1.81c-9.191 16.68-32.68 21.61-32.906 21.64 0 0-.041.01-.052.01v-11.61c16.007-6.04 26.24-17.38 26.24-42.12v-2.96h-23.742v-9.54h23.952v-8.63h14.813ZM335.371 1512.211v9.56h103.16v-9.56H335.37Z"/><path fill="#4C5C65" d="M858.206 1462.981v104.01h14.263v-104.01h-14.263ZM820.465 1482.091v-19.12h-15.304v19.12c0 24.74-10.217 36.08-26.233 42.12v11.61l.07-.01c.22-.04 23.699-4.96 32.893-21.65l.912-1.8.921 1.8c9.195 16.69 32.683 21.61 32.903 21.65l.06.01v-11.61c-16.005-6.04-26.222-17.38-26.222-42.12Z"/><path fill="url(#d)" d="M618.07 1242.18c-17.236-33.43-28.416-62.95-34.803-82.04-3.13 17.44-10.828 57.37-22.254 97.39 9.389 16.33 18.627 29.27 26.681 40.63 11.009-16.56 22.31-36.01 30.376-55.98Z" transform="matrix(1.00161 0 0 1 -264.659 -2.079)"/><path fill="url(#e)" d="M580.258 1308.99c-8.137-11.46-15.952-23.76-23.608-36.81-5.69 18.34-12.161 36.11-19.314 51.1 3.405 5.01 8.632 12.15 15.792 20.49 4.219-4.86 14.976-17.61 27.13-34.78Z" transform="matrix(1.00161 0 0 1 -264.659 -2.079)"/><path fill="url(#f)" d="M435.416 1322.45c11.054 15.25 23.11 30.99 35.204 45.23 9.392-5.95 17.652-11.85 24.878-17.56-6.218-13.98-14.772-35.07-23.35-56.83-8.16 7.15-20.5 17.36-36.732 29.16Z" transform="matrix(1.00161 0 0 1 -264.659 -2.079)"/><path fill="url(#g)" d="M467.338 1281.04c-10.376-26.55-20.151-52.27-25.158-65.52-15.854 16.36-32.045 31.48-48.405 45.37 7.411 11.81 19.859 30.92 34.691 51.85 17.509-12.97 30.544-24.13 38.872-31.7Z" transform="matrix(1.00161 0 0 1 -264.659 -2.079)"/><path fill="url(#h)" d="M351.935 1373.81c18.851 8.93 38.874 17.63 58.065 24.54a414.159 414.159 0 0 0 21.338-9.26c-16.828-7.46-35.927-17.67-54.79-28.65a676.728 676.728 0 0 1-24.613 13.37Z" transform="matrix(1.00161 0 0 1 -264.659 -2.079)"/><path fill="url(#i)" d="M365.38 1353.82c-19.418-11.67-38.005-23.74-52.917-33.98a695.453 695.453 0 0 1-30.345 17.53c13.813 7.89 34.313 19.09 57.423 30.45a658.273 658.273 0 0 0 25.839-14Z" transform="matrix(1.00161 0 0 1 -264.659 -2.079)"/><path fill="url(#j)" d="M559.214 1350.61a279.416 279.416 0 0 0 17.896 17.77c36.024-15.55 67.61-39.54 85.175-54.31-10.284-14.07-19.492-28.22-27.696-42.05-29.478 37.68-67.359 71.56-75.375 78.59Z" transform="matrix(1.00161 0 0 1 -264.659 -2.079)"/><path fill="url(#k)" d="M169.158 1386.76c-9.966 3.35-18.439 5.93-25.08 7.83-.056.01-.995.23-1.185.63-.146.31-.296.94.903 1.46 23.919 7.81 49.298 14.37 72.785 19.62a660.942 660.942 0 0 0 26.932-8.26c-26.661-6.84-52.87-14.36-74.355-21.28Z" transform="matrix(1.00161 0 0 1 -264.659 -2.079)"/><path fill="url(#l)" d="M261.025 1412.41a656.102 656.102 0 0 1-25.288 7.97c22.391 4.55 41.9 7.72 55.056 9.46a658.67 658.67 0 0 0 28.237-4.96c-17.792-3.21-37.756-7.56-58.005-12.47Z" transform="matrix(1.00161 0 0 1 -264.659 -2.079)"/><path fill="url(#m)" d="M324.875 1375.13c-23.339-10.41-45.214-21.12-59.986-28.69a728.98 728.98 0 0 1-26.656 12.89c18.817 8.38 41.165 17.61 63.872 26.27a684.38 684.38 0 0 0 22.77-10.47Z" transform="matrix(1.00161 0 0 1 -264.659 -2.079)"/><path fill="url(#n)" d="M316.26 1390.89c20.886 7.67 41.52 14.58 59.477 19.63 7.589-2.37 14.85-4.84 21.802-7.39-17.614-5.12-38.775-13.34-59.632-22.29a664.591 664.591 0 0 1-21.647 10.05Z" transform="matrix(1.00161 0 0 1 -264.659 -2.079)"/><path fill="url(#o)" d="M286.985 1392c-26.603-8.84-51.652-17.75-68.459-23.98a700.924 700.924 0 0 1-27.62 11.01c17.91 6.22 43.76 14.71 71.06 22.62a705.047 705.047 0 0 0 25.019-9.65Z" transform="matrix(1.00161 0 0 1 -264.659 -2.079)"/><path fill="url(#p)" d="M278.383 1406.27c21.388 5.84 42.853 10.97 61.409 14.08a524.686 524.686 0 0 0 21.835-5.65c-17.993-4.73-38.838-11.07-59.511-17.74a658.523 658.523 0 0 1-23.733 9.31Z" transform="matrix(1.00161 0 0 1 -264.659 -2.079)"/><path fill="url(#q)" d="M633.224 1408.36c21.069-1.63 59.941-6.21 99.364-19.03a410.463 410.463 0 0 1-21.367-19.12c-19.828 7.46-57.094 21.04-98.011 26.12a303.373 303.373 0 0 0 20.014 12.03Z" transform="matrix(1.00161 0 0 1 -264.659 -2.079)"/><path fill="url(#r)" d="M604.396 1390.31c17.225-3.44 56.079-13.81 94.56-32.36a416.303 416.303 0 0 1-22.987-26.06c-18.667 11.39-55.834 32.53-90.948 43.42 5.919 5 12.374 10.03 19.375 15Z" transform="matrix(1.00161 0 0 1 -264.659 -2.079)"/><path fill="url(#s)" d="M759.981 1410.23a395.026 395.026 0 0 1-17.316-12.78c-11.33 3.78-48.55 14.96-97.835 16.93a303.68 303.68 0 0 0 22.682 10.02c21.174.98 53.463-.5 92.456-11.94.717-.27.928-.56.95-.96.038-.66-.937-1.27-.937-1.27Z" transform="matrix(1.00161 0 0 1 -264.659 -2.079)"/><path fill="url(#t)" d="M371.727 1278.83a640.008 640.008 0 0 1-39.871 28.68c22.96 19.63 70.269 56.93 107.747 77.59 8.335-4.15 16.044-8.37 23.16-12.61-23.227-21.19-71.912-73.11-91.036-93.66Z" transform="matrix(1.00161 0 0 1 -264.659 -2.079)"/><path fill="url(#u)" d="M468.512 1186.79c10.747 50.12 27.194 129.01 33.198 158.28 13.273-11.13 22.519-21.16 28.553-28.62 19.364-106.92 14.159-216.22 14.159-216.22-.025-.91-.092-7.72-2.175-8.52-2.72-1.06-4.378 1.97-4.378 1.97s-40.987 62.19-69.357 93.11Z" transform="matrix(1.00161 0 0 1 -264.659 -2.079)"/><path fill="url(#v)" d="M848.427 305.065c-20.527-39.813-33.826-74.967-41.439-97.703-3.724 20.775-12.9 68.319-26.491 115.971 11.18 19.452 22.172 34.866 31.761 48.383 13.12-19.721 26.562-42.88 36.169-66.651Z" transform="matrix(1.00161 0 0 1 -264.659 -2.079)"/><path fill="url(#w)" d="M803.403 384.612c-9.683-13.633-18.987-28.284-28.11-43.821-6.782 21.835-14.48 42.985-23.003 60.843 4.055 5.971 10.286 14.469 18.817 24.399 5.017-5.778 17.834-20.975 32.296-41.421Z" transform="matrix(1.00161 0 0 1 -264.659 -2.079)"/><path fill="url(#x)" d="M630.919 400.649c13.173 18.149 27.533 36.891 41.921 53.862 11.193-7.082 21.017-14.119 29.629-20.91-7.409-16.662-17.587-41.775-27.79-67.679-9.732 8.516-24.432 20.672-43.76 34.727Z" transform="matrix(1.00161 0 0 1 -264.659 -2.079)"/><path fill="url(#y)" d="M668.937 351.334c-12.367-31.612-23.993-62.239-29.955-78.018a814.375 814.375 0 0 1-57.644 54.028c8.811 14.054 23.641 36.815 41.305 61.744 20.862-15.448 36.384-28.736 46.294-37.754Z" transform="matrix(1.00161 0 0 1 -264.659 -2.079)"/><path fill="url(#z)" d="M531.513 461.801c22.456 10.64 46.292 20.998 69.158 29.231 8.928-3.589 17.385-7.263 25.386-11.027-20.023-8.881-42.779-21.044-65.228-34.129a786.883 786.883 0 0 1-29.316 15.925Z" transform="matrix(1.00161 0 0 1 -264.659 -2.079)"/><path fill="url(#A)" d="M547.527 438.008c-23.123-13.904-45.261-28.281-63.012-40.469a832.636 832.636 0 0 1-36.14 20.87c16.449 9.396 40.849 22.733 68.375 36.261a781.489 781.489 0 0 0 30.777-16.662Z" transform="matrix(1.00161 0 0 1 -264.659 -2.079)"/><path fill="url(#B)" d="M778.36 434.177a331.917 331.917 0 0 0 21.302 21.159c42.895-18.522 80.503-47.092 101.424-64.671-12.252-16.749-23.213-33.595-32.99-50.074-35.099 44.87-80.192 85.218-89.736 93.586Z" transform="matrix(1.00161 0 0 1 -264.659 -2.079)"/><path fill="url(#C)" d="M313.856 477.229c-11.856 3.995-21.938 7.06-29.862 9.318-.061.025-1.195.28-1.41.762-.174.363-.351 1.109 1.085 1.732 28.462 9.302 58.695 17.121 86.66 23.365a808.781 808.781 0 0 0 32.074-9.831c-31.752-8.144-62.95-17.103-88.547-25.346Z" transform="matrix(1.00161 0 0 1 -264.659 -2.079)"/><path fill="url(#D)" d="M423.257 507.775a764.871 764.871 0 0 1-30.107 9.489c26.652 5.412 49.89 9.203 65.551 11.267a767.338 767.338 0 0 0 33.622-5.915c-21.183-3.82-44.952-8.993-69.066-14.841Z" transform="matrix(1.00161 0 0 1 -264.659 -2.079)"/><path fill="url(#E)" d="M499.288 463.379c-27.799-12.39-53.833-25.149-71.416-34.167a857.793 857.793 0 0 1-31.76 15.356c22.427 9.968 49.018 20.977 76.072 31.274a809.679 809.679 0 0 0 27.104-12.463Z" transform="matrix(1.00161 0 0 1 -264.659 -2.079)"/><path fill="url(#F)" d="M489.025 482.149c24.878 9.134 49.442 17.368 70.829 23.377a573.684 573.684 0 0 0 25.956-8.805c-20.955-6.099-46.169-15.88-70.993-26.551a771.743 771.743 0 0 1-25.792 11.979Z" transform="matrix(1.00161 0 0 1 -264.659 -2.079)"/><path fill="url(#G)" d="M454.177 483.464c-31.684-10.523-61.52-21.141-81.529-28.556-11.657 4.922-22.66 9.293-32.885 13.115 21.322 7.403 52.099 17.525 84.619 26.928a801.1 801.1 0 0 0 29.795-11.487Z" transform="matrix(1.00161 0 0 1 -264.659 -2.079)"/><path fill="url(#H)" d="M443.923 500.462c25.467 6.95 51.037 13.069 73.123 16.768a671.507 671.507 0 0 0 26.009-6.717c-21.436-5.65-46.247-13.183-70.874-21.147a748.759 748.759 0 0 1-28.258 11.096Z" transform="matrix(1.00161 0 0 1 -264.659 -2.079)"/><path fill="url(#I)" d="M866.472 502.94c25.09-1.924 71.387-7.371 118.326-22.65a492.224 492.224 0 0 1-25.449-22.77c-23.598 8.895-67.979 25.053-116.704 31.104a349.9 349.9 0 0 0 23.827 14.316Z" transform="matrix(1.00161 0 0 1 -264.659 -2.079)"/><path fill="url(#J)" d="M832.157 481.464c20.505-4.096 66.772-16.448 112.596-38.547a492.311 492.311 0 0 1-27.372-31.033c-22.238 13.562-66.496 38.744-108.298 51.705a348.079 348.079 0 0 0 23.074 17.875Z" transform="matrix(1.00161 0 0 1 -264.659 -2.079)"/><path fill="url(#K)" d="M1017.42 505.183a478.691 478.691 0 0 1-20.608-15.224c-13.508 4.501-57.82 17.807-116.517 20.164a356.623 356.623 0 0 0 27.022 11.928c25.201 1.181 63.651-.6 110.093-14.217.84-.319 1.11-.673 1.13-1.134.05-.8-1.12-1.517-1.12-1.517Z" transform="matrix(1.00161 0 0 1 -264.659 -2.079)"/><path fill="url(#L)" d="M555.084 348.7c-15.804 12.297-31.675 23.695-47.486 34.153 27.347 23.381 83.678 67.802 128.317 92.396a421.277 421.277 0 0 0 27.575-15.007c-27.656-25.232-85.634-87.068-108.406-111.542Z" transform="matrix(1.00161 0 0 1 -264.659 -2.079)"/><path fill="url(#M)" d="M670.341 239.097c12.8 59.688 32.373 153.632 39.529 188.484 15.81-13.252 26.811-25.203 33.996-34.079 23.074-127.327 16.877-257.476 16.877-257.476-.036-1.091-.114-9.193-2.608-10.149-3.221-1.25-5.211 2.346-5.211 2.346s-48.815 74.062-82.583 110.874Z" transform="matrix(1.00161 0 0 1 -264.659 -2.079)"/><path fill="#4C5C65" d="M187.328 627.285c.318-.318 39.551-38.903 39.551-38.903s39.244 38.585 39.558 38.903h28.394c-1.734-1.777-39.137-40.144-39.137-40.144h32.127v-19.04H165.942v19.04h32.126l-39.132 40.144h28.392ZM10.919 568.101l-35.664 92.851h20.372l23.75-61.704 23.758 61.704H63.51l-35.659-92.85ZM110.24 660.947h20.362v-92.846h-20.361v92.846ZM74.501 595.89a12.422 12.422 0 0 0-9.57-4.506c-6.847 0-12.407 5.556-12.407 12.378 0 6.841 5.56 12.392 12.407 12.392 3.842 0 7.289-1.752 9.57-4.503v49.294H94.84V568.1H74.5v27.791Z"/><path fill="#4C5C65" d="M240.682 627.211c0-7.615-6.176-13.785-13.803-13.785-7.616 0-13.8 6.17-13.8 13.785 0 4.044 1.78 7.64 4.554 10.158H154.71v19.06h42.88c-7.175 7.353-11.614 17.39-11.614 28.471 0 22.552 18.312 40.836 40.901 40.836 22.588 0 40.91-18.284 40.91-40.836 0-11.083-4.437-21.118-11.62-28.47h42.887v-19.06h-62.929c2.777-2.519 4.557-6.115 4.557-10.159Zm-13.803 78.17c-11.328 0-20.51-9.176-20.51-20.48 0-11.317 9.18-20.485 20.51-20.485 11.34 0 20.524 9.168 20.524 20.484 0 11.305-9.185 20.48-20.524 20.48ZM439.48 628.082h47.971v6.684H439.48v25.87h60.625v-8.49h-47.953v-8.878h47.953v-23.69H439.48v8.504ZM487.451 576.228h-15.722v-8.113H459.07v10.436h-19.783v-10.436h-12.654v42.277h45.096v-7.855h15.722v11.186h12.654v-45.606h-12.654v8.111Zm-28.379 25.662H439.29v-14.837h19.782v14.837Zm28.379-7.85h-15.722V584.736h15.722v9.302ZM334.712 634.775h54.155v26.446h12.662v-34.935h-66.817v8.49ZM401.53 598.173h-54.154v-7.165h52.4v-7.86h-52.4v-7.165h54.155v-7.868h-66.817v37.92h66.817v-7.862ZM598.526 568.115h-12.649v92.521h12.65v-55.233h13.064v-8.496h-13.065v-28.792ZM552.21 584.86v-6.139h19.718v-8.51h-52.596v8.51h19.723v6.14c-.036 18.61-7.354 31.314-21.195 36.538v10.028c.188-.042 19.583-4.109 26.964-18.765l.81-1.605.802 1.605c7.39 14.656 26.776 18.725 26.975 18.765V621.4c-13.857-5.224-21.163-17.928-21.201-36.539ZM688.517 660.638h12.65v-92.52h-12.65v92.52ZM655.04 585.12v-2.633h21.056v-8.502H654.852v-7.665H641.68v7.665H620.43v8.502h21.056v2.633c0 21.994-9.077 32.092-23.264 37.46v10.333l.047-.009c.198-.04 21.024-4.412 29.172-19.259l.817-1.615.813 1.615c8.16 14.847 28.983 19.22 29.177 19.26l.052.008V622.58c-14.201-5.368-23.26-15.464-23.26-37.46ZM322.388 620.402h91.474v-8.493h-91.474v8.493ZM786 568.115v92.521h12.65v-92.52H786ZM752.526 585.12V568.1h-13.562v17.02c0 21.994-9.064 32.092-23.264 37.46v10.333l.056-.009c.197-.04 21.02-4.412 29.168-19.259l.821-1.615.821 1.615c8.144 14.847 28.967 19.22 29.167 19.26l.05.008V622.58c-14.192-5.368-23.257-15.464-23.257-37.46Z"/></g></g></g></svg>