<svg xmlns="http://www.w3.org/2000/svg" width="698" height="752" overflow="hidden"><defs><clipPath id="a"><path d="M29 2h698v752H29z"/></clipPath></defs><g fill-rule="evenodd" clip-path="url(#a)" transform="translate(-29 -2)"><path fill="#AE1932" d="M447.565 102.683c1.421 2.235 3.29 4.23 3.513 6.449 2.141 6.528 8.193 10.454 8.944 17.126.24 2.251 3.147 3.112 4.648 4.102 1.613 2.107.511 4.469 3.641 7.55 1.502.958.352 3.32.607 5.57 1.502.974 3.035 1.948 4.52 2.953 13.56 21.197 14.886 45.841-.846 68.681-2.524 2.506-4.935 6.113-5.942 9.593-1.261 1.261-3.912 2.617-5.206 3.846.271 2.251 1.757 3.209 3.402 5.332-6.804 1.755-7.587 7.438-12.777 11.316-1.374.128-4.153.367-5.543.511-3.817 3.751-7.858 5.235-11.77 7.853-1.246 1.245-.895 4.597-.751 5.698-6.469 5.092-15.924 8.252-25.81 8.028-1.342.16-2.364 3.624-3.737 3.735-6.98.671-15.397.336-22.36.974-2.907-.846-4.52-2.937-7.443-3.799-2.763.288-5.558.511-8.449-.303-4.52-3.001-10.206-3.591-14.646-5.411-2.907-.878-8.209 1.868-11.212-.08-9.343-8.14-18.638-16.248-23.765-24.803-3.418-5.283-9.216-6.991-11.212-12.418-.256-2.251.798-5.698-2.124-6.544-5.798-1.724-3.386-5.315-3.753-8.667-1.742-3.176-2.013-5.427-5.159-8.524-1.757-3.192.543-7.916-1.326-12.242-.128-1.101 1.134-2.362 1.006-3.479-2.108-6.544 1.326-13.631.687-19.17-.383-3.352.527-7.932 1.533-11.412 3.45-7.071 6.756-15.275 12.969-22.601-.144-1.085-.383-3.32-.479-4.421 1.246-1.261 2.635-1.389 3.913-2.65 2.156-5.794 4.44-10.534 8.129-15.355 4.935-6.097 12.777-11.348 19.102-17.557 3.769-3.719 9.12-6.464 12.634-12.45 1.277-1.245 5.701.59 6.995-.638 3.785-3.72 9.455-3.129 13.368-5.762 3.929-2.602 3.147 3.065 7.187 1.58 2.779-.272 4.041-1.484 6.692-2.873 4.041-1.5 8.577 1.436 12.889 2.155 4.137-.367 8.449.367 12.985 3.288 6.021 3.926 19.933 2.617 22.169 10.31 3.354 5.284 9.391 9.21 12.777 14.509Z"/><path fill="#0079BC" d="M691.554 234.74c-2.227.152-4.526 2.175-5.711 4.422-1.597 2.997-.384 7.746 3.767 7.523.958.239 3.831-2.757 5.22-4.701 1.229-1.722.654-5.181-1.117-6.71a3.543 3.543 0 0 0-2.159-.534Zm10.401-40.144c-2.055.317-4.533 2.755-6.518 3.014 1.787 7.093-1.15 12.034-3.321 18.282-1.357 1.929-2.33 7.3.783 6.885 4.932 1.1 10.168-3.586 10.344-10.264.191-5.483 2.745-9.467 1.756-15.269-.731-2.266-1.811-2.839-3.044-2.648ZM620.54 37.295c1.374.356 3.233 2.858 5.28 4.149 4.119 5.355 4.901 12.225 11.207 16.974 5.235 3.953 7.295 10.568 11.413 15.94l-.399 2.166c-7.247 6.217-13.569-4.128-15.532-10.136-2.921-6.232-5.875-12.465-11.222-17.007.223-1.052.415-2.12.638-3.22-2.586-2.82-5.89-6.87-2.586-8.383.339-.483.743-.602 1.201-.483Zm30.343-18.58c3.145-.302 5.619 2.598 8.317 4.415.942.271 2.187-.526 3.129-.286 2.666 1.832 4.182 4.478 4.437 7.937.064 1.1-1.676 2.965-1.915 4.017-3.432-3.125-6.833-6.312-9.802-11.588-.957-.303-2.905-.797-3.671-2.136-.958-.27-.735-1.307-.495-2.359ZM564.09 3c5.108 0 9.833 2.151 12.787 8.383.782 1.276 3.719 1.945 4.693 2.168 2.586 2.79 2.378 9.452 5.14 11.189 3.528 2.996 8.828 1.897 10.217 5.595 1.963 5.992 6.497 9.228 8.652 14.185-.208 1.083.383 3.459 1.165 4.75 3.56 2.996 3.959 6.423 6.465 9.228 5.907 6.901 11.829 13.787 9.051 23.254-1.724 4.097 3.56 2.997 5.157 5.579 3.927 6.455 2.33 15.094 7.455 20.672-.99 10.982 4.342 21.103 7.694 30.778-5.699 8.83-2.538 24.275 1.995 33.088 0 0 3.145-.398 3.353-1.498.973-5.339 10.759-7.156 9.179-9.738-1.98-6.057-4.933-18.617-4.933-24.195.591-8.862.974-16.608-.399-25.852-.782-1.307-1.565-2.583-2.347-3.858-1.181-4.749-2.362-9.499-1.373-14.854-.59-2.391-2.362-3.842-2.953-6.248.208-1.084.591-3.236.782-4.32 2.171-.637 4.933 1.068 6.881 1.53 1.803 1.483.191 4.479.989 5.786 3.145 5.148 7.854 7.316 8.844 13.134a227.847 227.847 0 0 0-.75 4.303c.782 6.885 4.885 12.273 5.89 18.09.399 3.427-2.522 8.352-1.165 12.05 4.502 8.83 4.693 18.919 3.959 28.833-.798 4.287 4.677 7.73 3.129 10.727-1.549 3.028.415 3.474-1.182 6.486-.191 1.069-2.346 1.69-2.522 2.806 2.922 6.248-1.516 15.683-2.506 21.071-.192 1.067 3.352 2.231 4.071-1.738.446-2.358 4.533-2.343 6.656-2.996 2.347-1.785 4.103-5.882 3.911-10.376-.143-3.475 0-5.579-1.388-9.261-.384-3.458 2.362-7.299 1.165-12.049-.782-1.275-2.554-2.789-2.331-3.873 2.331-7.3 2.538-13.962 1.948-21.916-.591-2.391-1.373-3.65-2.171-4.989.175-1.067.606-3.203.989-5.355.176-6.678-1.979-11.619-3.943-17.66-.59-2.327-2.362-3.857-2.745-7.284-.782-1.307-2.554-2.837-2.379-3.905 1.772-9.674-2.953-17.437-4.342-26.697-2.171-10.504-12.164-17.182-15.325-27.94.16-1.084 3.448-.638 4.438-.415 7.854 7.331 16.538 15.923 18.677 26.474 1.373 3.666.783 6.886 2.379 9.484 6.657 8.16 7.838 18.488 9.035 28.816-.191 1.069 1.964.415 2.746 1.738-.192 1.068-.591 3.219.191 4.495 5.109 5.61 1.964 11.603 2.97 17.436.59 2.36 1.357 3.651 2.139 4.958-.192 1.083-2.73 3.904-2.954 4.941 4.167 5.386 5.923 12.495 4.774 18.934 4.725 2.168 2.553 8.384 3.703 13.134.766 1.291 1.788 1.514 2.778 1.705 1.341-1.928 2.713-3.872 3.128-6.041.591-8.814.99-16.56-.622-24.72-1.341-3.666-1.788-7.109.782-9.898-1.979-.431-2.586-2.821-3.336-4.112-3.528-14.201-4.997-30.108-9.211-44.629 0 0 1.149-.86 1.389-1.912-1.517-12.72-11.223-24.689-15.804-37.52-.718-2.295-4.454-5.02-6.21-7.459 0 0 .144-1.084.256-2.183 4.98.669 8.748 5.482 11.366 9.149 5.204 7.363 11.158 15.508 12.722 23.684 2.746 7.3 6.833 15.014 8.461 22.155 1.085 4.749 4.549 7.825 6.832 11.779 1.293 3.697.639 6.901.958 10.343 1.405 8.241 3.911 16.178 5.459 24.355 1.996 6.025 2.794 12.894.799 18.074-2.73 9.468 3.56 19.78 6.098 28.164 1.389 3.697-.368 7.762-1.932 10.774-.191 1.084 1.564 2.598 1.357 3.65-1.756 4.096-.367 7.762-1.165 12.082-1.165.844 1.372 3.65 0 5.546-1.165.925-2.139.702-3.321 1.563-1.58 3.012-.207 6.662-.798 9.913-3.145 5.993-1.548 14.186-7.439 18.489-2.187.622-2.378 1.721-3.56 2.566 1.006.223 1.804 1.514 2.555 2.805-1.166.845-2.155.622-3.321 1.498-.367 2.136 3.799 4.798 4.598 6.057-1.581 8.639-8.046 16.178-7.838 26.283-.399 2.152-1.006 5.371-1.357 7.539-1.996 5.148-5.715 8.846-7.679 13.978-.383 2.152-4.501 2.359-4.916 4.526-2.555 2.79-2.331 7.317-4.119 11.413-1.357 1.912-4.326 1.307-6.673 2.996-2.729 3.842-2.362 7.332-4.102 11.396-2.969 4.957-6.561 10.297-9.482 15.237-3.337 7.093-8.988 13.931-15.038 19.334-.99-.207-3.145.414-4.326 1.275-3.129 6.041-6.737 10.584-13.393 13.596-1.006-.207-2.475 4.463-3.64 5.324-4.598 3.426-7.247 7.315-12.835 10.551-2.091.637-3.256 1.514-5.571-2.359-7.279 12.926-17.049 23.015-27.632 31.877-5.524 3.204-11.143 2.869-14.799 6.487-12.052 11.858-31.224 24.434-33.411 26.187-.926-.223-4.613 5.276-4.613 5.276-3.911.335-1.661.685-5.268-.16 0 0-.176 6.073-5.077 7.077-10.376 2.025-13.121 14.074-13.92 19.031-.415 2.486-2.123.797-3.336 1.785-1.149 1.004-.399 2.471-1.565 3.491-4.501 2.789-8.38 8.304-12.148 12.543-1.149 1.005-1.947-.494-3.128.526-1.182 1.005-6.673 7.858-8.653 13.803-4.709 10.488-9.897 19.86-16.378 27.287-1.596 1.801 3.672 8.814 3.272 11.173-1.5 3.299-4.501 3.857-5.97 7.172-1.341 8.209-1.708 17.39-3.145 26.076-2.346 8.496.575 14.536 1.74 22.123 1.277 6.391-.351 14.647-.032 20.831.447 5.005 3.88 10.44 3.321 15.302.175 7.459-1.533 6.455.08 12.719-.224 3.649-1.405 7.268-.575 9.77-.303 4.909-1.085 7.938-1.357 12.815-1.053 1.179-3.193 3.49-3.256 4.702-.751 12.257-8.748 23.015-17.161 31.048-5.204 3.331-9.706 8.432-15.66 8.001-2.985-.175-12.946 6.137-16.283 6.934-8.812 2.454-15.851 2.502-24.264 1.354-9.323-2.518-16.698-4.861-23.131-14.376-3.784-4.24-10.36-2.662-12.835-9.181-.734-2.566-6.13-3.905-7.008-5.26-4.869-4.351-7.455-9.69-11.11-15.109-2.474-6.504-.687-10.95-3.64-17.262-3.065-3.873-4.374-6.598-7.407-10.472-4.07-5.116.926-12.496-2.059-17.596-2.091-1.371-4.103-3.921-5.092-6.471-1.964-5.005-1.501-12.289-4.486-17.596-1.644-6.36-.591-29.423.638-35.639.24-1.259-3.352-3.012-3.144-4.256.51-8.957 3.607-17.644 2.905-26.888.942-4.957.479-8.926 4.996-13.166 0 0-2.123-1.736-1.899-2.98 2.618-7.204 2.586-12.767 4.007-20.258.239-1.243 2.857-2.008 3.112-3.251-1.452-5.499-1.516-16.592-.59-21.581.495-2.487 6.928-6.201 8.413-8.432.223-1.211-.942-4.415 1.468-8.734.623-1.052 2.299-.733 3.544-1.721.192-1.26-.622-2.726-.399-3.969.623-3.714 6.928-6.424 7.375-8.91 2.474-8.463 6.737-11.986 11.19-18.887 1.629-2.997 2.219-6.248 4.853-9.021 1.181-.845 1.772-.016 1.964-1.1.207-1.084-.336-3.459-.192-4.527 2.507-2.821 5.971-5.387 6.529-8.607 1.74-4.096 3.273-7.076 5.747-9.914 4.613-3.442 9.227-6.901 12.084-11.81 2.491-2.821 5.364-2.168 7.886-4.989 3.624-3.666 4.598-9.021 7.279-12.926 6.338-7.555 13.25-12.703 20.146-17.867 5.747-4.32 13.058-6.041 18.614-9.276 5.747-4.304 9.211-12.449 14.782-15.684 3.416-2.582 7.471-2.805 10.951-5.387 3.448-2.598 6.321-7.555 11.509-8.639 11.462-2.996 3.257.223 13.984-4.08 6.705-4.081 3.927-5.212 10.648-9.309 11.126-6.47 16.921-10.598 17.863-10.376 1.149-.86 2.299-1.721 2.682-3.873 2.682-3.889 16.953-13.85 19.076-14.488 2.091-.637 4.613 2.152 7.072-.637 1.341-1.945-1.357-3.65 0-5.611 3.655-3.666 7.135-8.606 10.695-11.189 1.166-.844 3.927.877 6.082.207 1.166-.844 1.565-2.996 2.73-3.841 1.373-1.944-1.181-4.717.192-6.71 1.58-2.996 3.129-6.009 5.315-6.63 3.353-1.514 7.854-3.873 7.296-6.232.75-4.32 2.522-8.416 7.04-10.791.207-1.036.414-2.183.59-3.236 2.538-2.805 4.917-4.494 7.487-7.283 2.714-3.873 1.533-8.607 3.129-11.635 5.076-5.611 9.993-10.089 11.366-17.629-.383-3.458-2.554-8.399-.974-11.443 1.357-1.897 5.667-3.204 6.066-5.34.782-4.319-1.389-9.276-1.58-13.771.574-3.236 4.102-5.817 3.719-9.26-.399-9.038.192-17.867-1.165-27.096 3.113-.414 3.528-2.614 3.895-4.765-.782-6.886-4.709-13.309-6.465-20.434-.192-4.51 3.496-8.192 3.32-12.671-.399-3.459-3.704-7.57-7.295-10.552-3.321-4.096-1.149-10.328-2.331-15.046-.99-5.801-5.332-10.152-6.114-16.99-.399-3.459-4.517-3.235-5.89-6.917-1.182-4.718-2.363-9.468-2.363-15.063-.591-2.358-3.735-1.928-5.507-3.426-3.959-6.455-2.554-19.589-11.223-22.585.783-4.32-3.128-5.196-4.533-8.83Z"/><path fill="#2E853C" d="M223.677 228.569c.94.782 2.325 2.012 3.074 2.971 1.592 1.054 3.216 1.166 4.92.415 1.624.128 3.073 4.345 4.729 4.457 2.356 1.117 3.821 5.318 6.13 7.331 1.576 1.007 3.232 2.508 4.793 3.578 2.229 2.875 3.678 5.687 5.987 7.699 1.513 1.933 4.012 1.246 5.668 1.358 3.201 1.182 4.475 5.814 6.752 8.705.828.08 2.245 2.923 2.213 3.834 1.544 1.006 3.057 2.939 5.445 4.025.717.99.621 2.795 1.338 3.738 5.907 9.551 13.678 15.605 18.677 25.956 0 0 .653 1.869.606 2.779 6.114 5.926 8.789 14.312 14.043 21.068 1.433 2.812 2.771 7.46 4.093 11.165 1.512 1.949 3.089 2.987 4.57 4.936 2.213 3.786 4.331 8.498 4.808 13.05-.127 1.773-1.306 7.108-4.41 4.153-3.806-3.929-3.424-9.296-7.293-12.347.064-.895-.987-3.259-1.768-4.185-1.56-1.869-4.362-1.757-5.015-4.505.207-2.699-2.818-4.919-4.363-6.788-3.901-5.59-9.554-7.667-14.219-13.322-.844-.015-1.672-.063-2.532.783-.86 1.757-3.407 4.361-1.083 7.172 3.201 1.965 4.698 5.655 8.742 7.651 2.372 1.901 2.993 7.348 4.427 11.948 1.56 1.853 3.136 3.722 5.557 4.792 2.372 1.901 1.433 4.776 3.694 7.683-.064.91-.956 1.709-1.019 2.603 1.464 2.875 4.761 2.189 7.037 5.096 1.736-1.662 4.156-.336 5.589 2.284-2.659 2.508-1.99 4.361-2.993 7.028-2.771 4.281 3.487 8.386 7.42 10.526 2.468.192 2.118 4.696 4.458 6.693 1.449 2.843 5.51 3.179 7.707 6.98.701 1.869-1.003 2.636-1.959 4.345-.207 2.715 3.01 3.865 4.57 4.904 1.561 1.038 2.261 2.938 2.93 4.776-2.516.702-7.356-2.652-9.808-2.891-1.529-.687-4.491-4.234-7.627-4.92-1.083-.256-1.847 2.348-3.01 2.108-1.481-.287-3.073-.575-4.697-.895-1.736-.319-5.891-4.903-7.675-5.175-2.054-.351-4.554 3.419-6.544 3.067-7.388-1.246-7.675-1.757-9.984-2.715a65.179 65.179 0 0 1-7.786-3.786c-1.592-.862-1.146-2.987-2.643-3.945-1.497-.991-4.697-.975-6.21-1.901-5.907-3.642-11.48-11.836-16.528-14.471-3.328-1.71-6.13-3.45-9.808-5.192-1.831-1.134-3.105-3.674-5.366-4.424-6.943-2.332-12.516-6.741-20.414-8.993-14.983-4.265-27.434 4.361-39.615 10.67-.637 0-1.911-.128-2.596.335-2.802 2.396-6.114 3.674-8.901 5.543-3.774 3.019-9.028 3.801-13.2 6.262-1.337.798-1.481 3.226-2.77 4.009-1.991 1.15-5.526 1.405-7.484 2.603-1.752 1.166-1.99 3.259-3.71 4.552-3.487 2.828-6.911 5.128-11.64 7.364-2.707 1.39-25.158 5.224-28.884 5.287-5.796.08-9.808 4.872-18.438 4.856-13.137-.064-26.257-.335-37.164-8.482-2.309-1.996-2.739-7.459-4.283-8.497-4.714-3.083-4.252-9.376-5.59-14.025-1.528-1.006-4.808-1.261-4.617-3.993 1.8-13.433 8.423-25.605 16.528-34.869 1.895-3.482 6.114-4.935 6.449-9.44 0 0 7.292-10.287 11.703-14.423.971-1.725-.478-4.585.462-6.31 6.703-13.034 18.852-21.995 28.772-33.879 2.644-2.475 4.538-5.973 8.678-6.533 1.672.128 3.28.272 4.22-1.469 1.958-4.345 5.445-6.789 8.041-8.386 9.49-6.469 17.467-16.276 28.295-18.081 1.687-.751 2.643-2.476 4.315-3.275 1.799-1.661 4.936.384 6.624-.367 8.057-3.642 15.413-11.453 23.693-12.587 1.688-.75 2.659-2.508 3.455-2.428 7.356.623 16.018-5.926 22.929.99 6.273-1.277 15.572.016 19.505 3.371Zm56.288 79.034c.015-.91.063-1.789.079-2.699-3.2-1.965-4.617-7.46-8.694-8.562-.796-.031-2.484.799-2.516 1.678-.207 5.43 2.102 9.136 4.379 13.752.956-3.562 3.392-3.434 4.952-.67.844-.831 1.736-2.604 1.8-3.499Z"/></g></svg>