<svg xmlns="http://www.w3.org/2000/svg" width="798" height="679" overflow="hidden"><defs><clipPath id="a"><path d="M-21 39h798v679H-21z"/></clipPath></defs><g fill-rule="evenodd" clip-path="url(#a)" transform="translate(21 -39)"><path fill="#008C95" d="M415.082 39c2.472 40.416-14.833 53.613-39.554 56.087-21.424 0-34.608 5.774-44.496 17.322l-118.659 203.73c65.922 3.299 129.37 27.219 183.756 105.576 30.489 43.717 84.05 80.833 184.58 99.804-74.162 16.496-126.899-14.848-214.245-42.066-70.042-21.446-177.164-30.518-250.501 3.299L-20 717.001c93.115-77.534 260.39-97.329 379.872-51.964 137.611 51.964 270.278 67.635 416.129-7.423l-99.706-169.088c-17.305 14.022-34.608 21.446-51.913 23.919l18.952-135.269c-60.977 6.598-113.714-8.249-152.443-52.789-57.681-67.635-113.714-117.949-168.924-129.497 14.009-28.868 42.85-24.744 78.282-12.372 25.545 8.248 70.866-1.65 80.753-32.168L415.082 39Z"/><path fill="#FC4C02" d="M234.266 326c36.188 0 65 28.811 65.734 65 0 35.454-28.811 65-65 65-35.454 0-65-28.799-65-64.254.012-36.212 28.823-65.011 64.266-65.746Z"/></g></svg>